<?xml version="1.0" encoding="UTF-8"?>
<svg id="_Слой_1" data-name="Слой 1" xmlns="http://www.w3.org/2000/svg" xmlns:xlink="http://www.w3.org/1999/xlink" viewBox="0 0 92 92">
  <defs>
    <style>
      .cls-1 {
        clip-path: url(#clippath-4);
      }

      .cls-2 {
        fill: #fff;
      }

      .cls-3 {
        fill: none;
      }

      .cls-4 {
        clip-path: url(#clippath-1);
      }

      .cls-5 {
        clip-path: url(#clippath-3);
      }

      .cls-6 {
        isolation: isolate;
        opacity: .7;
      }

      .cls-7 {
        clip-path: url(#clippath-2);
      }

      .cls-8 {
        fill: #b72a40;
      }

      .cls-9 {
        clip-path: url(#clippath);
      }
    </style>
    <clipPath id="clippath">
      <path class="cls-3" d="M38.1,6.28c-2.61.52-5.14,1.29-7.6,2.3-2.46,1.02-4.79,2.26-7,3.74-2.21,1.48-4.26,3.16-6.14,5.04h0s.79.8.79.8c1.83-1.83,3.82-3.46,5.97-4.9,2.15-1.44,4.42-2.65,6.81-3.64,2.39-.99,4.85-1.74,7.39-2.24,2.54-.51,5.1-.76,7.68-.76s5.15.25,7.68.76c2.53.5,5,1.25,7.39,2.24,2.39.99,4.66,2.2,6.81,3.64,2.15,1.44,4.14,3.07,5.97,4.9l.8-.8c-1.88-1.88-3.93-3.56-6.14-5.04-2.21-1.48-4.54-2.73-7-3.74-2.46-1.02-4.99-1.79-7.6-2.3-2.61-.52-5.24-.78-7.9-.78s-5.29.26-7.9.78"/>
    </clipPath>
    <clipPath id="clippath-1">
      <path class="cls-3" d="M73.84,73.84c-1.83,1.83-3.82,3.46-5.97,4.9-2.15,1.44-4.42,2.65-6.81,3.64-2.39.99-4.85,1.74-7.39,2.24-2.54.51-5.1.76-7.68.76s-5.15-.25-7.68-.76c-2.54-.5-5-1.25-7.39-2.24-2.39-.99-4.66-2.2-6.81-3.64-2.15-1.44-4.14-3.07-5.97-4.9l-.79.79c1.88,1.88,3.93,3.56,6.14,5.04,2.21,1.48,4.54,2.73,7,3.74,2.46,1.02,4.99,1.79,7.6,2.3,2.61.52,5.24.78,7.9.78s5.29-.26,7.9-.78c2.61-.52,5.14-1.29,7.6-2.3,2.46-1.02,4.79-2.27,7-3.74,2.21-1.48,4.26-3.16,6.14-5.04l-.8-.79"/>
    </clipPath>
    <clipPath id="clippath-2">
      <path class="cls-3" d="M73.84,18.16c1.83,1.83,3.46,3.82,4.9,5.97,1.44,2.15,2.65,4.42,3.64,6.81.99,2.39,1.74,4.85,2.24,7.39.5,2.54.76,5.1.76,7.68s-.25,5.15-.76,7.68c-.5,2.54-1.25,5-2.24,7.39-.99,2.39-2.2,4.66-3.64,6.81-1.44,2.15-3.07,4.14-4.9,5.97l.8.79c1.88-1.88,3.56-3.93,5.04-6.14,1.48-2.21,2.72-4.54,3.74-7s1.79-4.99,2.3-7.6c.52-2.61.78-5.24.78-7.9s-.26-5.29-.78-7.9c-.52-2.61-1.29-5.14-2.3-7.6-1.02-2.46-2.27-4.79-3.74-7-1.48-2.21-3.16-4.26-5.04-6.14l-.8.8Z"/>
    </clipPath>
    <clipPath id="clippath-3">
      <path class="cls-3" d="M12.33,23.5c-1.48,2.21-2.72,4.55-3.74,7-1.02,2.46-1.79,4.99-2.3,7.6-.52,2.61-.78,5.24-.78,7.9s.26,5.29.78,7.9c.52,2.61,1.29,5.14,2.3,7.6s2.27,4.79,3.74,7c1.48,2.21,3.16,4.26,5.04,6.14l.79-.79c-1.83-1.83-3.46-3.82-4.9-5.97-1.44-2.15-2.65-4.42-3.64-6.81-.99-2.39-1.74-4.85-2.24-7.39-.5-2.54-.76-5.1-.76-7.68s.25-5.15.76-7.68c.51-2.54,1.25-5,2.24-7.39.99-2.39,2.2-4.66,3.64-6.81,1.44-2.15,3.07-4.14,4.9-5.97l-.79-.79c-1.88,1.88-3.56,3.93-5.04,6.14"/>
    </clipPath>
    <clipPath id="clippath-4">
      <rect class="cls-3" x="17.28" y="23.93" width="58.56" height="44.13"/>
    </clipPath>
  </defs>
  <path class="cls-8" d="M91,46c0,1.47-.07,2.94-.22,4.41-.14,1.47-.36,2.92-.65,4.37-.29,1.45-.64,2.87-1.07,4.28-.43,1.41-.92,2.8-1.49,4.16-.56,1.36-1.19,2.69-1.89,3.99-.69,1.3-1.45,2.56-2.27,3.79-.82,1.23-1.7,2.41-2.63,3.55-.93,1.14-1.92,2.23-2.97,3.27-1.04,1.04-2.13,2.03-3.27,2.96-1.14.93-2.32,1.81-3.55,2.63-1.23.82-2.49,1.58-3.79,2.27-1.3.7-2.63,1.32-3.99,1.89-1.36.56-2.75,1.06-4.16,1.49-1.41.43-2.84.79-4.28,1.07-1.45.29-2.9.5-4.37.65-1.47.14-2.94.22-4.41.22s-2.94-.07-4.41-.22c-1.47-.14-2.92-.36-4.37-.65-1.45-.29-2.87-.64-4.28-1.07-1.41-.43-2.8-.92-4.16-1.49-1.36-.57-2.69-1.19-3.99-1.89-1.3-.69-2.56-1.45-3.79-2.27-1.22-.82-2.41-1.7-3.55-2.63-1.14-.93-2.23-1.92-3.27-2.96s-2.03-2.13-2.97-3.27c-.93-1.14-1.81-2.32-2.63-3.55-.82-1.23-1.58-2.49-2.27-3.79-.69-1.3-1.32-2.63-1.89-3.99-.56-1.36-1.06-2.75-1.49-4.16-.43-1.41-.79-2.84-1.07-4.28-.29-1.45-.5-2.9-.65-4.37-.15-1.47-.22-2.94-.22-4.41s.07-2.94.22-4.41c.14-1.47.36-2.92.65-4.37.29-1.45.64-2.87,1.07-4.28.43-1.41.92-2.8,1.49-4.16.56-1.36,1.19-2.69,1.89-3.99.7-1.3,1.45-2.56,2.27-3.79.82-1.23,1.7-2.41,2.63-3.55.93-1.14,1.92-2.23,2.97-3.27s2.13-2.03,3.27-2.96c1.14-.94,2.32-1.81,3.55-2.63,1.23-.82,2.49-1.58,3.79-2.27,1.3-.7,2.63-1.33,3.99-1.89,1.36-.56,2.75-1.06,4.16-1.49,1.41-.43,2.84-.79,4.28-1.07,1.45-.29,2.9-.5,4.37-.65,1.47-.14,2.94-.22,4.41-.22s2.94.07,4.41.22c1.47.14,2.92.36,4.37.65,1.45.29,2.87.65,4.28,1.07,1.41.43,2.8.92,4.16,1.49,1.36.56,2.69,1.19,3.99,1.89,1.3.69,2.56,1.45,3.79,2.27,1.22.82,2.41,1.7,3.55,2.63,1.14.93,2.23,1.92,3.27,2.96,1.04,1.04,2.03,2.13,2.97,3.27.93,1.14,1.81,2.32,2.63,3.55.82,1.23,1.58,2.49,2.27,3.79.7,1.3,1.32,2.63,1.89,3.99.56,1.36,1.06,2.75,1.49,4.16.43,1.41.79,2.84,1.07,4.28.29,1.45.5,2.9.65,4.37.15,1.47.22,2.94.22,4.41"/>
  <g class="cls-6">
    <g>
      <g class="cls-9">
        <path class="cls-2" d="M45.07,4.27c.31,0,.62-.01.93-.01,1.14,0,2.28.05,3.42.14l-.2,2.47c-1.07-.09-2.14-.13-3.21-.13-.29,0-.59,0-.88.01l-.06-2.47ZM39.29,4.81c1.16-.19,2.32-.33,3.49-.42l.19,2.47c-1.1.09-2.2.22-3.29.39l-.4-2.44ZM33.66,6.13c1.1-.34,2.22-.64,3.35-.89l.53,2.42c-1.06.23-2.11.51-3.15.83l-.73-2.36ZM28.24,8.23c1.05-.49,2.11-.94,3.2-1.35l.86,2.32c-1.02.38-2.03.8-3.01,1.27l-1.05-2.24ZM23.14,11.08c.98-.64,1.99-1.24,3.02-1.8l1.18,2.18c-.97.52-1.92,1.09-2.84,1.69l-1.36-2.07ZM18.53,14.58c.88-.77,1.78-1.49,2.72-2.18l1.47,1.99c-.88.65-1.73,1.33-2.56,2.05l-1.63-1.86ZM14.42,18.71c.76-.88,1.56-1.73,2.39-2.54l1.73,1.77c-.78.77-1.53,1.57-2.25,2.4l-1.87-1.62ZM10.95,23.34c.63-.97,1.3-1.92,2.01-2.84l1.96,1.51c-.67.86-1.3,1.75-1.89,2.67l-2.08-1.34ZM8.13,28.45c.49-1.05,1.02-2.09,1.6-3.1l2.15,1.22c-.54.95-1.04,1.92-1.5,2.91l-2.25-1.04ZM6.06,33.89c.34-1.13.73-2.24,1.17-3.33l2.3.92c-.41,1.03-.78,2.07-1.1,3.13l-2.37-.72ZM4.77,39.52c.18-1.14.41-2.28.68-3.4l2.41.59c-.26,1.06-.47,2.12-.64,3.2l-2.45-.38ZM4.27,45.29c.02-1.15.09-2.29.2-3.44l2.46.24c-.11,1.07-.17,2.15-.19,3.23l-2.47-.04ZM4.56,51.01c-.14-1.15-.23-2.3-.27-3.46l2.47-.09c.04,1.09.13,2.17.26,3.25l-2.46.3ZM5.66,56.71c-.29-1.11-.54-2.23-.74-3.36l2.44-.43c.19,1.06.42,2.12.7,3.16l-2.39.64ZM7.55,62.23c-.45-1.08-.86-2.18-1.23-3.29l2.35-.77c.34,1.05.73,2.08,1.16,3.09l-2.28.96ZM10.17,67.4c-.6-1-1.15-2.03-1.66-3.07l2.22-1.09c.48.98,1,1.95,1.57,2.89l-2.12,1.27ZM13.49,72.17c-.73-.9-1.41-1.83-2.07-2.79l2.05-1.39c.61.9,1.26,1.78,1.94,2.63l-1.93,1.55ZM17.44,76.44c-.85-.8-1.67-1.63-2.45-2.5l1.84-1.66c.73.81,1.5,1.6,2.3,2.35l-1.69,1.8ZM21.94,80.11c-.95-.67-1.87-1.38-2.76-2.12l1.59-1.9c.84.7,1.7,1.37,2.59,2l-1.43,2.02ZM26.93,83.13c-1.04-.54-2.06-1.11-3.05-1.73l1.31-2.1c.93.58,1.89,1.12,2.87,1.63l-1.13,2.2ZM32.26,85.41c-1.1-.38-2.18-.81-3.25-1.29l1.01-2.26c1,.45,2.02.85,3.05,1.21l-.82,2.34ZM37.84,86.93c-1.13-.23-2.24-.5-3.35-.81l.68-2.38c1.04.3,2.09.55,3.15.76l-.48,2.43ZM43.64,87.67c-1.16-.07-2.32-.18-3.48-.34l.35-2.45c1.09.15,2.18.26,3.27.32l-.14,2.47ZM49.32,87.61c-1.1.09-2.21.13-3.32.13h-.1v-2.48h.1c1.04,0,2.08-.04,3.12-.12l.2,2.47ZM55.08,86.74c-1.14.25-2.29.46-3.44.62l-.33-2.45c1.09-.15,2.17-.34,3.24-.58l.54,2.42ZM60.66,85.08c-1.1.41-2.21.78-3.34,1.1l-.67-2.38c1.06-.3,2.11-.64,3.14-1.03l.87,2.32ZM65.92,82.68c-1.02.55-2.06,1.06-3.12,1.53l-1-2.27c1-.44,1.97-.92,2.93-1.44l1.18,2.18ZM70.83,79.55c-.93.69-1.9,1.34-2.89,1.95l-1.3-2.1c.93-.58,1.84-1.19,2.72-1.84l1.47,1.99ZM75.25,75.77c-.83.82-1.7,1.6-2.59,2.34l-1.58-1.9c.84-.7,1.66-1.43,2.44-2.2l1.73,1.77ZM79.11,71.42c-.71.92-1.46,1.82-2.24,2.68l-1.83-1.67c.74-.81,1.44-1.65,2.1-2.52l1.96,1.51ZM82.32,66.57c-.58,1.02-1.19,2.01-1.85,2.98l-2.04-1.4c.62-.91,1.2-1.84,1.74-2.8l2.15,1.22ZM84.81,61.36c-.42,1.07-.89,2.12-1.4,3.15l-2.22-1.1c.48-.97.92-1.96,1.32-2.97l2.3.91ZM86.57,55.78c-.27,1.13-.59,2.25-.96,3.35l-2.35-.78c.34-1.04.64-2.09.9-3.15l2.41.58ZM87.54,50.04c-.11,1.18-.28,2.35-.49,3.51l-2.43-.45c.2-1.09.36-2.19.46-3.3l2.46.24ZM87.71,44.35c.02.55.03,1.1.03,1.65,0,.58-.01,1.16-.04,1.74l-2.47-.1c.02-.55.03-1.09.03-1.64,0-.52-.01-1.03-.03-1.55l2.47-.1ZM87.07,38.55c.21,1.16.37,2.33.48,3.51l-2.46.23c-.1-1.11-.26-2.21-.46-3.3l2.44-.44ZM85.65,32.96c.36,1.1.68,2.22.95,3.35l-2.41.57c-.25-1.06-.55-2.11-.89-3.15l2.35-.77ZM83.45,27.58c.51,1.03.97,2.09,1.39,3.16l-2.3.9c-.4-1.01-.83-2-1.31-2.97l2.22-1.09ZM80.52,22.54c.66.97,1.27,1.96,1.85,2.98l-2.16,1.21c-.54-.96-1.12-1.89-1.74-2.8l2.05-1.39ZM76.94,17.98c.78.86,1.52,1.76,2.23,2.68l-1.97,1.5c-.66-.87-1.36-1.71-2.1-2.52l1.83-1.66ZM72.74,13.95c.9.75,1.76,1.53,2.59,2.35l-1.74,1.76c-.78-.77-1.59-1.51-2.43-2.21l1.59-1.9ZM68.03,10.55c.99.61,1.95,1.27,2.88,1.96l-1.48,1.99c-.88-.65-1.78-1.27-2.71-1.84l1.31-2.1ZM62.9,7.84c1.06.47,2.1.98,3.12,1.54l-1.19,2.17c-.96-.52-1.93-1.01-2.93-1.45l1-2.26ZM57.41,5.85c1.13.32,2.24.69,3.34,1.1l-.88,2.32c-1.03-.39-2.08-.74-3.14-1.04l.68-2.38ZM51.74,4.66c1.15.16,2.3.37,3.44.62l-.54,2.41c-1.07-.24-2.15-.44-3.23-.59l.34-2.45Z"/>
      </g>
      <g class="cls-4">
        <path class="cls-2" d="M45.07,4.27c.31,0,.62-.01.93-.01,1.14,0,2.28.05,3.42.14l-.2,2.47c-1.07-.09-2.14-.13-3.21-.13-.29,0-.59,0-.88.01l-.06-2.47ZM39.29,4.81c1.16-.19,2.32-.33,3.49-.42l.19,2.47c-1.1.09-2.2.22-3.29.39l-.4-2.44ZM33.66,6.13c1.1-.34,2.22-.64,3.35-.89l.53,2.42c-1.06.23-2.11.51-3.15.83l-.73-2.36ZM28.24,8.23c1.05-.49,2.11-.94,3.2-1.35l.86,2.32c-1.02.38-2.03.8-3.01,1.27l-1.05-2.24ZM23.14,11.08c.98-.64,1.99-1.24,3.02-1.8l1.18,2.18c-.97.52-1.92,1.09-2.84,1.69l-1.36-2.07ZM18.53,14.58c.88-.77,1.78-1.49,2.72-2.18l1.47,1.99c-.88.65-1.73,1.33-2.56,2.05l-1.63-1.86ZM14.42,18.71c.76-.88,1.56-1.73,2.39-2.54l1.73,1.77c-.78.77-1.53,1.57-2.25,2.4l-1.87-1.62ZM10.95,23.34c.63-.97,1.3-1.92,2.01-2.84l1.96,1.51c-.67.86-1.3,1.75-1.89,2.67l-2.08-1.34ZM8.13,28.45c.49-1.05,1.02-2.09,1.6-3.1l2.15,1.22c-.54.95-1.04,1.92-1.5,2.91l-2.25-1.04ZM6.06,33.89c.34-1.13.73-2.24,1.17-3.33l2.3.92c-.41,1.03-.78,2.07-1.1,3.13l-2.37-.72ZM4.77,39.52c.18-1.14.41-2.28.68-3.4l2.41.59c-.26,1.06-.47,2.12-.64,3.2l-2.45-.38ZM4.27,45.29c.02-1.15.09-2.29.2-3.44l2.46.24c-.11,1.07-.17,2.15-.19,3.23l-2.47-.04ZM4.56,51.01c-.14-1.15-.23-2.3-.27-3.46l2.47-.09c.04,1.09.13,2.17.26,3.25l-2.46.3ZM5.66,56.71c-.29-1.11-.54-2.23-.74-3.36l2.44-.43c.19,1.06.42,2.12.7,3.16l-2.39.64ZM7.55,62.23c-.45-1.08-.86-2.18-1.23-3.29l2.35-.77c.34,1.05.73,2.08,1.16,3.09l-2.28.96ZM10.17,67.4c-.6-1-1.15-2.03-1.66-3.07l2.22-1.09c.48.98,1,1.95,1.57,2.89l-2.12,1.27ZM13.49,72.17c-.73-.9-1.41-1.83-2.07-2.79l2.05-1.39c.61.9,1.26,1.78,1.94,2.63l-1.93,1.55ZM17.44,76.44c-.85-.8-1.67-1.63-2.45-2.5l1.84-1.66c.73.81,1.5,1.6,2.3,2.35l-1.69,1.8ZM21.94,80.11c-.95-.67-1.87-1.38-2.76-2.12l1.59-1.9c.84.7,1.7,1.37,2.59,2l-1.43,2.02ZM26.93,83.13c-1.04-.54-2.06-1.11-3.05-1.73l1.31-2.1c.93.58,1.89,1.12,2.87,1.63l-1.13,2.2ZM32.26,85.41c-1.1-.38-2.18-.81-3.25-1.29l1.01-2.26c1,.45,2.02.85,3.05,1.21l-.82,2.34ZM37.84,86.93c-1.13-.23-2.24-.5-3.35-.81l.68-2.38c1.04.3,2.09.55,3.15.76l-.48,2.43ZM43.64,87.67c-1.16-.07-2.32-.18-3.48-.34l.35-2.45c1.09.15,2.18.26,3.27.32l-.14,2.47ZM49.32,87.61c-1.1.09-2.21.13-3.32.13h-.1v-2.48h.1c1.04,0,2.08-.04,3.12-.12l.2,2.47ZM55.08,86.74c-1.14.25-2.29.46-3.44.62l-.33-2.45c1.09-.15,2.17-.34,3.24-.58l.54,2.42ZM60.66,85.08c-1.1.41-2.21.78-3.34,1.1l-.67-2.38c1.06-.3,2.11-.64,3.14-1.03l.87,2.32ZM65.92,82.68c-1.02.55-2.06,1.06-3.12,1.53l-1-2.27c1-.44,1.97-.92,2.93-1.44l1.18,2.18ZM70.83,79.55c-.93.69-1.9,1.34-2.89,1.95l-1.3-2.1c.93-.58,1.84-1.19,2.72-1.84l1.47,1.99ZM75.25,75.77c-.83.82-1.7,1.6-2.59,2.34l-1.58-1.9c.84-.7,1.66-1.43,2.44-2.2l1.73,1.77ZM79.11,71.42c-.71.92-1.46,1.82-2.24,2.68l-1.83-1.67c.74-.81,1.44-1.65,2.1-2.52l1.96,1.51ZM82.32,66.57c-.58,1.02-1.19,2.01-1.85,2.98l-2.04-1.4c.62-.91,1.2-1.84,1.74-2.8l2.15,1.22ZM84.81,61.36c-.42,1.07-.89,2.12-1.4,3.15l-2.22-1.1c.48-.97.92-1.96,1.32-2.97l2.3.91ZM86.57,55.78c-.27,1.13-.59,2.25-.96,3.35l-2.35-.78c.34-1.04.64-2.09.9-3.15l2.41.58ZM87.54,50.04c-.11,1.18-.28,2.35-.49,3.51l-2.43-.45c.2-1.09.36-2.19.46-3.3l2.46.24ZM87.71,44.35c.02.55.03,1.1.03,1.65,0,.58-.01,1.16-.04,1.74l-2.47-.1c.02-.55.03-1.09.03-1.64,0-.52-.01-1.03-.03-1.55l2.47-.1ZM87.07,38.55c.21,1.16.37,2.33.48,3.51l-2.46.23c-.1-1.11-.26-2.21-.46-3.3l2.44-.44ZM85.65,32.96c.36,1.1.68,2.22.95,3.35l-2.41.57c-.25-1.06-.55-2.11-.89-3.15l2.35-.77ZM83.45,27.58c.51,1.03.97,2.09,1.39,3.16l-2.3.9c-.4-1.01-.83-2-1.31-2.97l2.22-1.09ZM80.52,22.54c.66.97,1.27,1.96,1.85,2.98l-2.16,1.21c-.54-.96-1.12-1.89-1.74-2.8l2.05-1.39ZM76.94,17.98c.78.86,1.52,1.76,2.23,2.68l-1.97,1.5c-.66-.87-1.36-1.71-2.1-2.52l1.83-1.66ZM72.74,13.95c.9.75,1.76,1.53,2.59,2.35l-1.74,1.76c-.78-.77-1.59-1.51-2.43-2.21l1.59-1.9ZM68.03,10.55c.99.61,1.95,1.27,2.88,1.96l-1.48,1.99c-.88-.65-1.78-1.27-2.71-1.84l1.31-2.1ZM62.9,7.84c1.06.47,2.1.98,3.12,1.54l-1.19,2.17c-.96-.52-1.93-1.01-2.93-1.45l1-2.26ZM57.41,5.85c1.13.32,2.24.69,3.34,1.1l-.88,2.32c-1.03-.39-2.08-.74-3.14-1.04l.68-2.38ZM51.74,4.66c1.15.16,2.3.37,3.44.62l-.54,2.41c-1.07-.24-2.15-.44-3.23-.59l.34-2.45Z"/>
      </g>
      <g class="cls-7">
        <path class="cls-2" d="M45.07,4.27c.31,0,.62-.01.93-.01,1.14,0,2.28.05,3.42.14l-.2,2.47c-1.07-.09-2.14-.13-3.21-.13-.29,0-.59,0-.88.01l-.06-2.47ZM39.29,4.81c1.16-.19,2.32-.33,3.49-.42l.19,2.47c-1.1.09-2.2.22-3.29.39l-.4-2.44ZM33.66,6.13c1.1-.34,2.22-.64,3.35-.89l.53,2.42c-1.06.23-2.11.51-3.15.83l-.73-2.36ZM28.24,8.23c1.05-.49,2.11-.94,3.2-1.35l.86,2.32c-1.02.38-2.03.8-3.01,1.27l-1.05-2.24ZM23.14,11.08c.98-.64,1.99-1.24,3.02-1.8l1.18,2.18c-.97.52-1.92,1.09-2.84,1.69l-1.36-2.07ZM18.53,14.58c.88-.77,1.78-1.49,2.72-2.18l1.47,1.99c-.88.65-1.73,1.33-2.56,2.05l-1.63-1.86ZM14.42,18.71c.76-.88,1.56-1.73,2.39-2.54l1.73,1.77c-.78.77-1.53,1.57-2.25,2.4l-1.87-1.62ZM10.95,23.34c.63-.97,1.3-1.92,2.01-2.84l1.96,1.51c-.67.86-1.3,1.75-1.89,2.67l-2.08-1.34ZM8.13,28.45c.49-1.05,1.02-2.09,1.6-3.1l2.15,1.22c-.54.95-1.04,1.92-1.5,2.91l-2.25-1.04ZM6.06,33.89c.34-1.13.73-2.24,1.17-3.33l2.3.92c-.41,1.03-.78,2.07-1.1,3.13l-2.37-.72ZM4.77,39.52c.18-1.14.41-2.28.68-3.4l2.41.59c-.26,1.06-.47,2.12-.64,3.2l-2.45-.38ZM4.27,45.29c.02-1.15.09-2.29.2-3.44l2.46.24c-.11,1.07-.17,2.15-.19,3.23l-2.47-.04ZM4.56,51.01c-.14-1.15-.23-2.3-.27-3.46l2.47-.09c.04,1.09.13,2.17.26,3.25l-2.46.3ZM5.66,56.71c-.29-1.11-.54-2.23-.74-3.36l2.44-.43c.19,1.06.42,2.12.7,3.16l-2.39.64ZM7.55,62.23c-.45-1.08-.86-2.18-1.23-3.29l2.35-.77c.34,1.05.73,2.08,1.16,3.09l-2.28.96ZM10.17,67.4c-.6-1-1.15-2.03-1.66-3.07l2.22-1.09c.48.98,1,1.95,1.57,2.89l-2.12,1.27ZM13.49,72.17c-.73-.9-1.41-1.83-2.07-2.79l2.05-1.39c.61.9,1.26,1.78,1.94,2.63l-1.93,1.55ZM17.44,76.44c-.85-.8-1.67-1.63-2.45-2.5l1.84-1.66c.73.81,1.5,1.6,2.3,2.35l-1.69,1.8ZM21.94,80.11c-.95-.67-1.87-1.38-2.76-2.12l1.59-1.9c.84.7,1.7,1.37,2.59,2l-1.43,2.02ZM26.93,83.13c-1.04-.54-2.06-1.11-3.05-1.73l1.31-2.1c.93.58,1.89,1.12,2.87,1.63l-1.13,2.2ZM32.26,85.41c-1.1-.38-2.18-.81-3.25-1.29l1.01-2.26c1,.45,2.02.85,3.05,1.21l-.82,2.34ZM37.84,86.93c-1.13-.23-2.24-.5-3.35-.81l.68-2.38c1.04.3,2.09.55,3.15.76l-.48,2.43ZM43.64,87.67c-1.16-.07-2.32-.18-3.48-.34l.35-2.45c1.09.15,2.18.26,3.27.32l-.14,2.47ZM49.32,87.61c-1.1.09-2.21.13-3.32.13h-.1v-2.48h.1c1.04,0,2.08-.04,3.12-.12l.2,2.47ZM55.08,86.74c-1.14.25-2.29.46-3.44.62l-.33-2.45c1.09-.15,2.17-.34,3.24-.58l.54,2.42ZM60.66,85.08c-1.1.41-2.21.78-3.34,1.1l-.67-2.38c1.06-.3,2.11-.64,3.14-1.03l.87,2.32ZM65.92,82.68c-1.02.55-2.06,1.06-3.12,1.53l-1-2.27c1-.44,1.97-.92,2.93-1.44l1.18,2.18ZM70.83,79.55c-.93.69-1.9,1.34-2.89,1.95l-1.3-2.1c.93-.58,1.84-1.19,2.72-1.84l1.47,1.99ZM75.25,75.77c-.83.82-1.7,1.6-2.59,2.34l-1.58-1.9c.84-.7,1.66-1.43,2.44-2.2l1.73,1.77ZM79.11,71.42c-.71.92-1.46,1.82-2.24,2.68l-1.83-1.67c.74-.81,1.44-1.65,2.1-2.52l1.96,1.51ZM82.32,66.57c-.58,1.02-1.19,2.01-1.85,2.98l-2.04-1.4c.62-.91,1.2-1.84,1.74-2.8l2.15,1.22ZM84.81,61.36c-.42,1.07-.89,2.12-1.4,3.15l-2.22-1.1c.48-.97.92-1.96,1.32-2.97l2.3.91ZM86.57,55.78c-.27,1.13-.59,2.25-.96,3.35l-2.35-.78c.34-1.04.64-2.09.9-3.15l2.41.58ZM87.54,50.04c-.11,1.18-.28,2.35-.49,3.51l-2.43-.45c.2-1.09.36-2.19.46-3.3l2.46.24ZM87.71,44.35c.02.55.03,1.1.03,1.65,0,.58-.01,1.16-.04,1.74l-2.47-.1c.02-.55.03-1.09.03-1.64,0-.52-.01-1.03-.03-1.55l2.47-.1ZM87.07,38.55c.21,1.16.37,2.33.48,3.51l-2.46.23c-.1-1.11-.26-2.21-.46-3.3l2.44-.44ZM85.65,32.96c.36,1.1.68,2.22.95,3.35l-2.41.57c-.25-1.06-.55-2.11-.89-3.15l2.35-.77ZM83.45,27.58c.51,1.03.97,2.09,1.39,3.16l-2.3.9c-.4-1.01-.83-2-1.31-2.97l2.22-1.09ZM80.52,22.54c.66.97,1.27,1.96,1.85,2.98l-2.16,1.21c-.54-.96-1.12-1.89-1.74-2.8l2.05-1.39ZM76.94,17.98c.78.86,1.52,1.76,2.23,2.68l-1.97,1.5c-.66-.87-1.36-1.71-2.1-2.52l1.83-1.66ZM72.74,13.95c.9.75,1.76,1.53,2.59,2.35l-1.74,1.76c-.78-.77-1.59-1.51-2.43-2.21l1.59-1.9ZM68.03,10.55c.99.61,1.95,1.27,2.88,1.96l-1.48,1.99c-.88-.65-1.78-1.27-2.71-1.84l1.31-2.1ZM62.9,7.84c1.06.47,2.1.98,3.12,1.54l-1.19,2.17c-.96-.52-1.93-1.01-2.93-1.45l1-2.26ZM57.41,5.85c1.13.32,2.24.69,3.34,1.1l-.88,2.32c-1.03-.39-2.08-.74-3.14-1.04l.68-2.38ZM51.74,4.66c1.15.16,2.3.37,3.44.62l-.54,2.41c-1.07-.24-2.15-.44-3.23-.59l.34-2.45Z"/>
      </g>
      <g class="cls-5">
        <path class="cls-2" d="M45.07,4.27c.31,0,.62-.01.93-.01,1.14,0,2.28.05,3.42.14l-.2,2.47c-1.07-.09-2.14-.13-3.21-.13-.29,0-.59,0-.88.01l-.06-2.47ZM39.29,4.81c1.16-.19,2.32-.33,3.49-.42l.19,2.47c-1.1.09-2.2.22-3.29.39l-.4-2.44ZM33.66,6.13c1.1-.34,2.22-.64,3.35-.89l.53,2.42c-1.06.23-2.11.51-3.15.83l-.73-2.36ZM28.24,8.23c1.05-.49,2.11-.94,3.2-1.35l.86,2.32c-1.02.38-2.03.8-3.01,1.27l-1.05-2.24ZM23.14,11.08c.98-.64,1.99-1.24,3.02-1.8l1.18,2.18c-.97.52-1.92,1.09-2.84,1.69l-1.36-2.07ZM18.53,14.58c.88-.77,1.78-1.49,2.72-2.18l1.47,1.99c-.88.65-1.73,1.33-2.56,2.05l-1.63-1.86ZM14.42,18.71c.76-.88,1.56-1.73,2.39-2.54l1.73,1.77c-.78.77-1.53,1.57-2.25,2.4l-1.87-1.62ZM10.95,23.34c.63-.97,1.3-1.92,2.01-2.84l1.96,1.51c-.67.86-1.3,1.75-1.89,2.67l-2.08-1.34ZM8.13,28.45c.49-1.05,1.02-2.09,1.6-3.1l2.15,1.22c-.54.95-1.04,1.92-1.5,2.91l-2.25-1.04ZM6.06,33.89c.34-1.13.73-2.24,1.17-3.33l2.3.92c-.41,1.03-.78,2.07-1.1,3.13l-2.37-.72ZM4.77,39.52c.18-1.14.41-2.28.68-3.4l2.41.59c-.26,1.06-.47,2.12-.64,3.2l-2.45-.38ZM4.27,45.29c.02-1.15.09-2.29.2-3.44l2.46.24c-.11,1.07-.17,2.15-.19,3.23l-2.47-.04ZM4.56,51.01c-.14-1.15-.23-2.3-.27-3.46l2.47-.09c.04,1.09.13,2.17.26,3.25l-2.46.3ZM5.66,56.71c-.29-1.11-.54-2.23-.74-3.36l2.44-.43c.19,1.06.42,2.12.7,3.16l-2.39.64ZM7.55,62.23c-.45-1.08-.86-2.18-1.23-3.29l2.35-.77c.34,1.05.73,2.08,1.16,3.09l-2.28.96ZM10.17,67.4c-.6-1-1.15-2.03-1.66-3.07l2.22-1.09c.48.98,1,1.95,1.57,2.89l-2.12,1.27ZM13.49,72.17c-.73-.9-1.41-1.83-2.07-2.79l2.05-1.39c.61.9,1.26,1.78,1.94,2.63l-1.93,1.55ZM17.44,76.44c-.85-.8-1.67-1.63-2.45-2.5l1.84-1.66c.73.81,1.5,1.6,2.3,2.35l-1.69,1.8ZM21.94,80.11c-.95-.67-1.87-1.38-2.76-2.12l1.59-1.9c.84.7,1.7,1.37,2.59,2l-1.43,2.02ZM26.93,83.13c-1.04-.54-2.06-1.11-3.05-1.73l1.31-2.1c.93.58,1.89,1.12,2.87,1.63l-1.13,2.2ZM32.26,85.41c-1.1-.38-2.18-.81-3.25-1.29l1.01-2.26c1,.45,2.02.85,3.05,1.21l-.82,2.34ZM37.84,86.93c-1.13-.23-2.24-.5-3.35-.81l.68-2.38c1.04.3,2.09.55,3.15.76l-.48,2.43ZM43.64,87.67c-1.16-.07-2.32-.18-3.48-.34l.35-2.45c1.09.15,2.18.26,3.27.32l-.14,2.47ZM49.32,87.61c-1.1.09-2.21.13-3.32.13h-.1v-2.48h.1c1.04,0,2.08-.04,3.12-.12l.2,2.47ZM55.08,86.74c-1.14.25-2.29.46-3.44.62l-.33-2.45c1.09-.15,2.17-.34,3.24-.58l.54,2.42ZM60.66,85.08c-1.1.41-2.21.78-3.34,1.1l-.67-2.38c1.06-.3,2.11-.64,3.14-1.03l.87,2.32ZM65.92,82.68c-1.02.55-2.06,1.06-3.12,1.53l-1-2.27c1-.44,1.97-.92,2.93-1.44l1.18,2.18ZM70.83,79.55c-.93.69-1.9,1.34-2.89,1.95l-1.3-2.1c.93-.58,1.84-1.19,2.72-1.84l1.47,1.99ZM75.25,75.77c-.83.82-1.7,1.6-2.59,2.34l-1.58-1.9c.84-.7,1.66-1.43,2.44-2.2l1.73,1.77ZM79.11,71.42c-.71.92-1.46,1.82-2.24,2.68l-1.83-1.67c.74-.81,1.44-1.65,2.1-2.52l1.96,1.51ZM82.32,66.57c-.58,1.02-1.19,2.01-1.85,2.98l-2.04-1.4c.62-.91,1.2-1.84,1.74-2.8l2.15,1.22ZM84.81,61.36c-.42,1.07-.89,2.12-1.4,3.15l-2.22-1.1c.48-.97.92-1.96,1.32-2.97l2.3.91ZM86.57,55.78c-.27,1.13-.59,2.25-.96,3.35l-2.35-.78c.34-1.04.64-2.09.9-3.15l2.41.58ZM87.54,50.04c-.11,1.18-.28,2.35-.49,3.51l-2.43-.45c.2-1.09.36-2.19.46-3.3l2.46.24ZM87.71,44.35c.02.55.03,1.1.03,1.65,0,.58-.01,1.16-.04,1.74l-2.47-.1c.02-.55.03-1.09.03-1.64,0-.52-.01-1.03-.03-1.55l2.47-.1ZM87.07,38.55c.21,1.16.37,2.33.48,3.51l-2.46.23c-.1-1.11-.26-2.21-.46-3.3l2.44-.44ZM85.65,32.96c.36,1.1.68,2.22.95,3.35l-2.41.57c-.25-1.06-.55-2.11-.89-3.15l2.35-.77ZM83.45,27.58c.51,1.03.97,2.09,1.39,3.16l-2.3.9c-.4-1.01-.83-2-1.31-2.97l2.22-1.09ZM80.52,22.54c.66.97,1.27,1.96,1.85,2.98l-2.16,1.21c-.54-.96-1.12-1.89-1.74-2.8l2.05-1.39ZM76.94,17.98c.78.86,1.52,1.76,2.23,2.68l-1.97,1.5c-.66-.87-1.36-1.71-2.1-2.52l1.83-1.66ZM72.74,13.95c.9.75,1.76,1.53,2.59,2.35l-1.74,1.76c-.78-.77-1.59-1.51-2.43-2.21l1.59-1.9ZM68.03,10.55c.99.61,1.95,1.27,2.88,1.96l-1.48,1.99c-.88-.65-1.78-1.27-2.71-1.84l1.31-2.1ZM62.9,7.84c1.06.47,2.1.98,3.12,1.54l-1.19,2.17c-.96-.52-1.93-1.01-2.93-1.45l1-2.26ZM57.41,5.85c1.13.32,2.24.69,3.34,1.1l-.88,2.32c-1.03-.39-2.08-.74-3.14-1.04l.68-2.38ZM51.74,4.66c1.15.16,2.3.37,3.44.62l-.54,2.41c-1.07-.24-2.15-.44-3.23-.59l.34-2.45Z"/>
      </g>
    </g>
  </g>
  <g class="cls-1">
    <path class="cls-2" d="M25.35,58.89v-19.58c0-2.25.41-4.25,1.22-5.99.81-1.74,1.91-3.09,3.3-4.05,1.39-.96,2.85-1.45,4.4-1.46,1.41,0,2.82.41,4.21,1.25,1.39.83,2.53,2.08,3.41,3.75.88,1.67,1.32,3.66,1.32,5.98,0,2.13-.37,4.02-1.11,5.67-.74,1.65-1.68,2.93-2.83,3.81-1.15.89-2.31,1.33-3.46,1.33h-5.3v-4.29h4.04c1.3,0,2.32-.38,3.05-1.15.73-.76,1.24-1.63,1.51-2.63.28-.99.41-1.91.41-2.76,0-.98-.15-1.98-.45-2.98-.3-1.01-.84-1.88-1.62-2.61-.78-.73-1.85-1.1-3.17-1.1-1.94,0-3.3.77-4.07,2.3-.77,1.53-1.15,3.2-1.16,5.01l-.14,22.97-3.56-3.48ZM47.21,68.07c9.14,0,17.35-3.05,22.84-7.84v-6.32c-2.24,1.54-5.13,2.46-8.29,2.46-7.07,0-12.84-4.65-12.84-10.36s5.77-10.36,12.84-10.36c3.15,0,6.05.93,8.29,2.46v-6.32c-5.5-4.79-13.7-7.84-22.84-7.84-16.48,0-29.92,9.91-29.92,22.07s13.44,22.06,29.92,22.06M63.91,39.83h11.93v3.14h-4v9.57h-3.92v-9.57h-4.01v-3.14Z"/>
  </g>
</svg>