<?xml version="1.0" encoding="UTF-8"?>
<svg id="_Слой_1" data-name="Слой 1" xmlns="http://www.w3.org/2000/svg" xmlns:xlink="http://www.w3.org/1999/xlink" viewBox="0 0 92 92">
  <defs>
    <style>
      .cls-1 {
        fill: #0056b3;
      }

      .cls-2 {
        fill: #fff;
      }

      .cls-3 {
        fill: none;
      }

      .cls-4 {
        clip-path: url(#clippath-1);
      }

      .cls-5 {
        clip-path: url(#clippath-3);
      }

      .cls-6 {
        isolation: isolate;
        opacity: .7;
      }

      .cls-7 {
        clip-path: url(#clippath-2);
      }

      .cls-8 {
        clip-path: url(#clippath);
      }
    </style>
    <clipPath id="clippath">
      <path class="cls-3" d="M38.46,7.28c-2.61.51-5.14,1.25-7.6,2.24-2.46.99-4.79,2.21-7,3.65-2.21,1.44-4.26,3.07-6.14,4.91-.14.14-.28.28-.42.42l.8.83c.14-.14.28-.28.42-.42,1.83-1.78,3.82-3.36,5.97-4.76,2.15-1.4,4.42-2.57,6.81-3.54,2.39-.96,4.85-1.69,7.39-2.18,2.54-.49,5.1-.73,7.68-.73s5.15.24,7.68.73c2.54.49,5,1.22,7.39,2.18,2.39.96,4.66,2.14,6.81,3.54,2.15,1.4,4.14,2.98,5.97,4.76.14.14.28.28.42.42l.8-.83c-.14-.14-.28-.28-.42-.42-1.88-1.83-3.93-3.47-6.14-4.91-2.21-1.44-4.55-2.65-7-3.65-2.46-.99-4.99-1.74-7.6-2.24-2.61-.5-5.24-.76-7.9-.76s-5.29.25-7.9.76"/>
    </clipPath>
    <clipPath id="clippath-1">
      <path class="cls-3" d="M74.2,73.03c-1.83,1.78-3.82,3.36-5.97,4.76-2.15,1.4-4.42,2.57-6.81,3.54-2.39.96-4.85,1.69-7.39,2.18-2.54.49-5.1.74-7.68.74s-5.15-.25-7.68-.74c-2.54-.49-5-1.22-7.39-2.18-2.39-.96-4.66-2.14-6.81-3.54-2.15-1.4-4.14-2.98-5.97-4.76-.14-.14-.28-.28-.42-.42l-.8.83c.14.14.28.28.42.42,1.88,1.83,3.92,3.47,6.14,4.91,2.21,1.44,4.54,2.65,7,3.65,2.46.99,4.99,1.74,7.6,2.24,2.61.51,5.24.76,7.9.76s5.29-.25,7.9-.76c2.61-.5,5.14-1.25,7.6-2.24,2.46-.99,4.79-2.21,7-3.65,2.21-1.44,4.26-3.07,6.14-4.91.14-.14.28-.28.42-.42l-.8-.83c-.14.14-.28.28-.42.42"/>
    </clipPath>
    <clipPath id="clippath-2">
      <path class="cls-3" d="M74.63,19.33c1.66,1.66,3.15,3.45,4.47,5.38,1.44,2.09,2.65,4.29,3.64,6.62.99,2.32,1.74,4.71,2.24,7.18.5,2.46.76,4.95.76,7.47s-.25,5-.76,7.47c-.5,2.46-1.25,4.86-2.24,7.18-.99,2.32-2.2,4.53-3.64,6.62-1.32,1.93-2.82,3.72-4.47,5.38l.8.83c1.71-1.71,3.25-3.57,4.61-5.56,1.48-2.15,2.73-4.43,3.74-6.82,1.02-2.39,1.79-4.86,2.31-7.4.52-2.54.78-5.11.78-7.7s-.26-5.15-.78-7.7c-.52-2.54-1.29-5.01-2.31-7.4-1.02-2.39-2.26-4.67-3.74-6.82-1.37-1.99-2.9-3.84-4.61-5.56l-.8.83Z"/>
    </clipPath>
    <clipPath id="clippath-3">
      <path class="cls-3" d="M12.69,24.06c-1.48,2.15-2.72,4.43-3.74,6.82-1.02,2.39-1.79,4.86-2.3,7.4-.52,2.54-.78,5.11-.78,7.7s.26,5.15.78,7.7c.52,2.54,1.29,5.01,2.3,7.4,1.02,2.39,2.26,4.67,3.74,6.82,1.36,1.99,2.9,3.84,4.61,5.56l.8-.83c-1.66-1.66-3.15-3.45-4.47-5.38-1.44-2.09-2.65-4.29-3.64-6.62s-1.74-4.71-2.24-7.18c-.5-2.46-.76-4.95-.76-7.47s.25-5,.76-7.47c.5-2.46,1.25-4.86,2.24-7.18.99-2.32,2.2-4.53,3.64-6.62,1.33-1.93,2.82-3.72,4.47-5.38l-.8-.83c-1.71,1.72-3.25,3.57-4.61,5.56"/>
    </clipPath>
  </defs>
  <path class="cls-1" d="M91.36,45.97c0,1.45-.07,2.89-.22,4.33-.14,1.44-.36,2.87-.65,4.29-.29,1.42-.64,2.82-1.07,4.2-.43,1.38-.92,2.74-1.49,4.08-.57,1.34-1.19,2.64-1.89,3.92-.69,1.28-1.45,2.51-2.27,3.72-.82,1.2-1.7,2.36-2.63,3.48-.93,1.12-1.92,2.19-2.96,3.21-1.04,1.02-2.13,1.99-3.27,2.91-1.14.92-2.32,1.78-3.55,2.58-1.23.8-2.49,1.55-3.79,2.23-1.3.68-2.63,1.3-3.99,1.85-1.36.55-2.75,1.04-4.16,1.46-1.41.42-2.84.77-4.28,1.05-1.45.28-2.9.49-4.37.64-1.47.14-2.94.21-4.41.21s-2.94-.07-4.41-.21c-1.47-.14-2.92-.35-4.37-.64-1.44-.28-2.87-.63-4.28-1.05-1.41-.42-2.8-.91-4.16-1.46-1.36-.55-2.69-1.17-3.99-1.85s-2.56-1.42-3.79-2.23c-1.22-.8-2.41-1.66-3.55-2.58-1.14-.92-2.23-1.89-3.27-2.91-1.04-1.02-2.03-2.09-2.97-3.21-.93-1.12-1.81-2.28-2.63-3.48-.82-1.2-1.58-2.44-2.27-3.72-.7-1.28-1.32-2.58-1.89-3.92-.56-1.34-1.06-2.7-1.49-4.08-.43-1.38-.79-2.78-1.07-4.2-.29-1.42-.5-2.85-.65-4.29-.15-1.44-.22-2.88-.22-4.33s.07-2.89.22-4.33c.14-1.44.36-2.87.65-4.29.29-1.42.64-2.82,1.07-4.2.43-1.38.92-2.74,1.49-4.08.57-1.34,1.19-2.64,1.89-3.92.69-1.28,1.45-2.51,2.27-3.72.82-1.2,1.7-2.36,2.63-3.48.93-1.12,1.92-2.19,2.97-3.21,1.04-1.02,2.13-1.99,3.27-2.91,1.14-.92,2.32-1.78,3.55-2.58,1.23-.8,2.49-1.55,3.79-2.23s2.63-1.3,3.99-1.85c1.36-.55,2.75-1.04,4.16-1.46,1.41-.42,2.84-.77,4.28-1.05,1.45-.28,2.9-.49,4.37-.64,1.47-.14,2.94-.21,4.41-.21s2.94.07,4.41.21c1.47.14,2.92.35,4.37.64,1.45.28,2.87.63,4.28,1.05,1.41.42,2.8.91,4.16,1.46,1.36.55,2.69,1.17,3.99,1.85,1.3.68,2.56,1.42,3.79,2.23,1.22.8,2.41,1.66,3.55,2.58,1.14.92,2.23,1.89,3.27,2.91,1.04,1.02,2.03,2.09,2.96,3.21.94,1.12,1.81,2.28,2.63,3.48.82,1.2,1.58,2.44,2.27,3.72.7,1.27,1.32,2.58,1.89,3.92.56,1.34,1.06,2.7,1.49,4.08.43,1.38.79,2.78,1.07,4.2.29,1.42.5,2.85.65,4.29.15,1.44.22,2.88.22,4.33"/>
  <g class="cls-6">
    <g>
      <g class="cls-8">
        <path class="cls-2" d="M46.3,5.23h.06c1.14,0,2.28.05,3.41.14l-.19,2.58c-1.07-.09-2.15-.13-3.22-.13h-.06v-2.59ZM40.61,5.62c1.15-.16,2.31-.27,3.47-.33l.13,2.59c-1.1.06-2.19.16-3.28.31l-.32-2.57ZM34.98,6.77c1.11-.31,2.23-.57,3.36-.78l.44,2.55c-1.07.2-2.12.45-3.17.74l-.63-2.5ZM29.51,8.7c1.08-.46,2.17-.88,3.28-1.25l.76,2.47c-1.05.35-2.08.75-3.09,1.18l-.94-2.4ZM24.35,11.35c1.01-.61,2.04-1.18,3.09-1.7l1.06,2.34c-.99.49-1.97,1.03-2.91,1.6l-1.24-2.24ZM19.58,14.73c.92-.75,1.86-1.45,2.84-2.12l1.35,2.17c-.92.63-1.81,1.29-2.67,2l-1.52-2.04ZM15.29,18.77c.81-.88,1.65-1.72,2.54-2.53l1.63,1.95c-.83.76-1.62,1.55-2.38,2.37l-1.78-1.8ZM11.62,23.39c.67-.98,1.38-1.94,2.14-2.86l1.88,1.69c-.71.86-1.38,1.76-2,2.68l-2.01-1.5ZM8.61,28.58c.53-1.09,1.1-2.15,1.72-3.19l2.1,1.38c-.58.97-1.12,1.97-1.61,2.98l-2.21-1.17ZM6.41,34.18c.36-1.18.78-2.33,1.25-3.47l2.27,1.03c-.44,1.06-.83,2.14-1.17,3.24l-2.35-.8ZM5.07,40.04c.18-1.2.42-2.4.71-3.58l2.4.65c-.27,1.1-.49,2.21-.66,3.34l-2.45-.4ZM4.62,46.02v-.05h0c0-1.19.05-2.37.16-3.55l2.46.24c-.1,1.1-.15,2.2-.15,3.3h0v.05h-2.48ZM5.08,52.01c-.19-1.21-.32-2.43-.39-3.66l2.47-.16c.07,1.14.19,2.28.36,3.41l-2.44.41ZM6.44,57.86c-.36-1.15-.67-2.32-.92-3.5l2.41-.57c.24,1.1.52,2.19.86,3.26l-2.35.81ZM8.66,63.45c-.53-1.08-1.01-2.19-1.43-3.32l2.3-.96c.4,1.05.85,2.08,1.34,3.1l-2.21,1.18ZM11.68,68.63c-.69-1-1.33-2.03-1.92-3.09l2.13-1.31c.56.99,1.16,1.96,1.8,2.9l-2.01,1.51ZM15.36,73.25c-.81-.88-1.58-1.79-2.32-2.74l1.92-1.63c.69.89,1.41,1.74,2.17,2.57l-1.78,1.8ZM19.66,77.28c-.92-.75-1.81-1.53-2.66-2.35l1.68-1.9c.8.77,1.63,1.51,2.5,2.21l-1.52,2.05ZM24.44,80.64c-1.01-.61-2-1.26-2.95-1.95l1.41-2.13c.9.65,1.83,1.26,2.78,1.84l-1.24,2.24ZM29.61,83.28c-1.08-.46-2.13-.96-3.16-1.51l1.12-2.31c.97.51,1.97.99,2.98,1.42l-.94,2.4ZM35.08,85.19c-1.13-.31-2.25-.67-3.35-1.07l.82-2.45c1.04.38,2.1.72,3.17,1.01l-.63,2.51ZM40.72,86.33c-1.16-.15-2.3-.35-3.44-.6l.5-2.54c1.08.23,2.16.42,3.25.57l-.31,2.57ZM46.39,86.71h-.03c-1.13,0-2.25-.05-3.38-.13l.19-2.58c1.06.08,2.12.13,3.19.13h.03v2.59ZM52.07,86.33c-1.15.15-2.31.26-3.47.32l-.12-2.59c1.1-.06,2.19-.16,3.28-.31l.32,2.57ZM57.71,85.18c-1.11.31-2.23.57-3.36.78l-.44-2.55c1.07-.2,2.12-.45,3.17-.74l.63,2.5ZM63.18,83.26c-1.08.46-2.17.88-3.28,1.25l-.75-2.47c1.05-.35,2.08-.75,3.1-1.18l.94,2.4ZM68.34,80.6c-1.01.61-2.04,1.17-3.09,1.7l-1.06-2.34c.99-.49,1.97-1.03,2.91-1.6l1.24,2.24ZM73.12,77.24c-.91.75-1.86,1.45-2.84,2.12l-1.35-2.17c.92-.63,1.81-1.29,2.67-1.99l1.52,2.04ZM77.41,73.2c-.81.88-1.66,1.72-2.54,2.53l-1.63-1.95c.83-.76,1.62-1.55,2.38-2.37l1.78,1.8ZM81.08,68.58c-.67.98-1.39,1.93-2.14,2.86l-1.88-1.69c.71-.86,1.38-1.76,2.01-2.68l2.01,1.51ZM84.09,63.39c-.53,1.09-1.1,2.15-1.73,3.19l-2.09-1.38c.58-.97,1.12-1.96,1.61-2.98l2.21,1.17ZM86.3,57.8c-.36,1.17-.78,2.33-1.26,3.47l-2.27-1.03c.44-1.06.83-2.14,1.17-3.24l2.35.8ZM87.65,51.94c-.18,1.2-.42,2.39-.71,3.58l-2.4-.65c.27-1.1.49-2.21.66-3.33l2.44.41ZM88.1,45.95v.02c0,1.19-.05,2.39-.16,3.58l-2.46-.24c.1-1.11.15-2.22.15-3.33v-.02h2.48ZM87.64,39.97c.19,1.21.31,2.43.39,3.66l-2.47.16c-.07-1.14-.19-2.28-.36-3.41l2.44-.41ZM86.29,34.11c.36,1.15.67,2.32.92,3.5l-2.42.57c-.24-1.1-.52-2.19-.86-3.26l2.35-.8ZM84.08,28.52c.53,1.09,1.01,2.19,1.43,3.32l-2.3.96c-.4-1.05-.84-2.09-1.34-3.1l2.21-1.17ZM81.06,23.34c.69,1,1.33,2.04,1.92,3.1l-2.14,1.31c-.56-.99-1.16-1.96-1.8-2.9l2.01-1.51ZM77.38,18.72c.81.88,1.58,1.79,2.31,2.74l-1.92,1.63c-.69-.89-1.41-1.74-2.17-2.57l1.78-1.8ZM73.09,14.68c.92.75,1.8,1.53,2.66,2.36l-1.68,1.9c-.8-.77-1.63-1.51-2.49-2.21l1.52-2.05ZM68.31,11.32c1.01.61,1.99,1.26,2.95,1.96l-1.41,2.13c-.9-.65-1.82-1.27-2.78-1.84l1.24-2.24ZM63.15,8.67c1.07.46,2.13.96,3.16,1.51l-1.12,2.31c-.97-.52-1.96-.99-2.98-1.43l.94-2.4ZM57.67,6.76c1.13.31,2.25.67,3.35,1.07l-.82,2.44c-1.04-.38-2.09-.72-3.17-1.01l.63-2.51ZM52.04,5.61c1.16.15,2.3.36,3.44.61l-.51,2.54c-1.07-.24-2.16-.43-3.25-.57l.31-2.57Z"/>
      </g>
      <g class="cls-4">
        <path class="cls-2" d="M46.3,5.23h.06c1.14,0,2.28.05,3.41.14l-.19,2.58c-1.07-.09-2.15-.13-3.22-.13h-.06v-2.59ZM40.61,5.62c1.15-.16,2.31-.27,3.47-.33l.13,2.59c-1.1.06-2.19.16-3.28.31l-.32-2.57ZM34.98,6.77c1.11-.31,2.23-.57,3.36-.78l.44,2.55c-1.07.2-2.12.45-3.17.74l-.63-2.5ZM29.51,8.7c1.08-.46,2.17-.88,3.28-1.25l.76,2.47c-1.05.35-2.08.75-3.09,1.18l-.94-2.4ZM24.35,11.35c1.01-.61,2.04-1.18,3.09-1.7l1.06,2.34c-.99.49-1.97,1.03-2.91,1.6l-1.24-2.24ZM19.58,14.73c.92-.75,1.86-1.45,2.84-2.12l1.35,2.17c-.92.63-1.81,1.29-2.67,2l-1.52-2.04ZM15.29,18.77c.81-.88,1.65-1.72,2.54-2.53l1.63,1.95c-.83.76-1.62,1.55-2.38,2.37l-1.78-1.8ZM11.62,23.39c.67-.98,1.38-1.94,2.14-2.86l1.88,1.69c-.71.86-1.38,1.76-2,2.68l-2.01-1.5ZM8.61,28.58c.53-1.09,1.1-2.15,1.72-3.19l2.1,1.38c-.58.97-1.12,1.97-1.61,2.98l-2.21-1.17ZM6.41,34.18c.36-1.18.78-2.33,1.25-3.47l2.27,1.03c-.44,1.06-.83,2.14-1.17,3.24l-2.35-.8ZM5.07,40.04c.18-1.2.42-2.4.71-3.58l2.4.65c-.27,1.1-.49,2.21-.66,3.34l-2.45-.4ZM4.62,46.02v-.05h0c0-1.19.05-2.37.16-3.55l2.46.24c-.1,1.1-.15,2.2-.15,3.3h0v.05h-2.48ZM5.08,52.01c-.19-1.21-.32-2.43-.39-3.66l2.47-.16c.07,1.14.19,2.28.36,3.41l-2.44.41ZM6.44,57.86c-.36-1.15-.67-2.32-.92-3.5l2.41-.57c.24,1.1.52,2.19.86,3.26l-2.35.81ZM8.66,63.45c-.53-1.08-1.01-2.19-1.43-3.32l2.3-.96c.4,1.05.85,2.08,1.34,3.1l-2.21,1.18ZM11.68,68.63c-.69-1-1.33-2.03-1.92-3.09l2.13-1.31c.56.99,1.16,1.96,1.8,2.9l-2.01,1.51ZM15.36,73.25c-.81-.88-1.58-1.79-2.32-2.74l1.92-1.63c.69.89,1.41,1.74,2.17,2.57l-1.78,1.8ZM19.66,77.28c-.92-.75-1.81-1.53-2.66-2.35l1.68-1.9c.8.77,1.63,1.51,2.5,2.21l-1.52,2.05ZM24.44,80.64c-1.01-.61-2-1.26-2.95-1.95l1.41-2.13c.9.65,1.83,1.26,2.78,1.84l-1.24,2.24ZM29.61,83.28c-1.08-.46-2.13-.96-3.16-1.51l1.12-2.31c.97.51,1.97.99,2.98,1.42l-.94,2.4ZM35.08,85.19c-1.13-.31-2.25-.67-3.35-1.07l.82-2.45c1.04.38,2.1.72,3.17,1.01l-.63,2.51ZM40.72,86.33c-1.16-.15-2.3-.35-3.44-.6l.5-2.54c1.08.23,2.16.42,3.25.57l-.31,2.57ZM46.39,86.71h-.03c-1.13,0-2.25-.05-3.38-.13l.19-2.58c1.06.08,2.12.13,3.19.13h.03v2.59ZM52.07,86.33c-1.15.15-2.31.26-3.47.32l-.12-2.59c1.1-.06,2.19-.16,3.28-.31l.32,2.57ZM57.71,85.18c-1.11.31-2.23.57-3.36.78l-.44-2.55c1.07-.2,2.12-.45,3.17-.74l.63,2.5ZM63.18,83.26c-1.08.46-2.17.88-3.28,1.25l-.75-2.47c1.05-.35,2.08-.75,3.1-1.18l.94,2.4ZM68.34,80.6c-1.01.61-2.04,1.17-3.09,1.7l-1.06-2.34c.99-.49,1.97-1.03,2.91-1.6l1.24,2.24ZM73.12,77.24c-.91.75-1.86,1.45-2.84,2.12l-1.35-2.17c.92-.63,1.81-1.29,2.67-1.99l1.52,2.04ZM77.41,73.2c-.81.88-1.66,1.72-2.54,2.53l-1.63-1.95c.83-.76,1.62-1.55,2.38-2.37l1.78,1.8ZM81.08,68.58c-.67.98-1.39,1.93-2.14,2.86l-1.88-1.69c.71-.86,1.38-1.76,2.01-2.68l2.01,1.51ZM84.09,63.39c-.53,1.09-1.1,2.15-1.73,3.19l-2.09-1.38c.58-.97,1.12-1.96,1.61-2.98l2.21,1.17ZM86.3,57.8c-.36,1.17-.78,2.33-1.26,3.47l-2.27-1.03c.44-1.06.83-2.14,1.17-3.24l2.35.8ZM87.65,51.94c-.18,1.2-.42,2.39-.71,3.58l-2.4-.65c.27-1.1.49-2.21.66-3.33l2.44.41ZM88.1,45.95v.02c0,1.19-.05,2.39-.16,3.58l-2.46-.24c.1-1.11.15-2.22.15-3.33v-.02h2.48ZM87.64,39.97c.19,1.21.31,2.43.39,3.66l-2.47.16c-.07-1.14-.19-2.28-.36-3.41l2.44-.41ZM86.29,34.11c.36,1.15.67,2.32.92,3.5l-2.42.57c-.24-1.1-.52-2.19-.86-3.26l2.35-.8ZM84.08,28.52c.53,1.09,1.01,2.19,1.43,3.32l-2.3.96c-.4-1.05-.84-2.09-1.34-3.1l2.21-1.17ZM81.06,23.34c.69,1,1.33,2.04,1.92,3.1l-2.14,1.31c-.56-.99-1.16-1.96-1.8-2.9l2.01-1.51ZM77.38,18.72c.81.88,1.58,1.79,2.31,2.74l-1.92,1.63c-.69-.89-1.41-1.74-2.17-2.57l1.78-1.8ZM73.09,14.68c.92.75,1.8,1.53,2.66,2.36l-1.68,1.9c-.8-.77-1.63-1.51-2.49-2.21l1.52-2.05ZM68.31,11.32c1.01.61,1.99,1.26,2.95,1.96l-1.41,2.13c-.9-.65-1.82-1.27-2.78-1.84l1.24-2.24ZM63.15,8.67c1.07.46,2.13.96,3.16,1.51l-1.12,2.31c-.97-.52-1.96-.99-2.98-1.43l.94-2.4ZM57.67,6.76c1.13.31,2.25.67,3.35,1.07l-.82,2.44c-1.04-.38-2.09-.72-3.17-1.01l.63-2.51ZM52.04,5.61c1.16.15,2.3.36,3.44.61l-.51,2.54c-1.07-.24-2.16-.43-3.25-.57l.31-2.57Z"/>
      </g>
      <g class="cls-7">
        <path class="cls-2" d="M46.3,5.23h.06c1.14,0,2.28.05,3.41.14l-.19,2.58c-1.07-.09-2.15-.13-3.22-.13h-.06v-2.59ZM40.61,5.62c1.15-.16,2.31-.27,3.47-.33l.13,2.59c-1.1.06-2.19.16-3.28.31l-.32-2.57ZM34.98,6.77c1.11-.31,2.23-.57,3.36-.78l.44,2.55c-1.07.2-2.12.45-3.17.74l-.63-2.5ZM29.51,8.7c1.08-.46,2.17-.88,3.28-1.25l.76,2.47c-1.05.35-2.08.75-3.09,1.18l-.94-2.4ZM24.35,11.35c1.01-.61,2.04-1.18,3.09-1.7l1.06,2.34c-.99.49-1.97,1.03-2.91,1.6l-1.24-2.24ZM19.58,14.73c.92-.75,1.86-1.45,2.84-2.12l1.35,2.17c-.92.63-1.81,1.29-2.67,2l-1.52-2.04ZM15.29,18.77c.81-.88,1.65-1.72,2.54-2.53l1.63,1.95c-.83.76-1.62,1.55-2.38,2.37l-1.78-1.8ZM11.62,23.39c.67-.98,1.38-1.94,2.14-2.86l1.88,1.69c-.71.86-1.38,1.76-2,2.68l-2.01-1.5ZM8.61,28.58c.53-1.09,1.1-2.15,1.72-3.19l2.1,1.38c-.58.97-1.12,1.97-1.61,2.98l-2.21-1.17ZM6.41,34.18c.36-1.18.78-2.33,1.25-3.47l2.27,1.03c-.44,1.06-.83,2.14-1.17,3.24l-2.35-.8ZM5.07,40.04c.18-1.2.42-2.4.71-3.58l2.4.65c-.27,1.1-.49,2.21-.66,3.34l-2.45-.4ZM4.62,46.02v-.05h0c0-1.19.05-2.37.16-3.55l2.46.24c-.1,1.1-.15,2.2-.15,3.3h0v.05h-2.48ZM5.08,52.01c-.19-1.21-.32-2.43-.39-3.66l2.47-.16c.07,1.14.19,2.28.36,3.41l-2.44.41ZM6.44,57.86c-.36-1.15-.67-2.32-.92-3.5l2.41-.57c.24,1.1.52,2.19.86,3.26l-2.35.81ZM8.66,63.45c-.53-1.08-1.01-2.19-1.43-3.32l2.3-.96c.4,1.05.85,2.08,1.34,3.1l-2.21,1.18ZM11.68,68.63c-.69-1-1.33-2.03-1.92-3.09l2.13-1.31c.56.99,1.16,1.96,1.8,2.9l-2.01,1.51ZM15.36,73.25c-.81-.88-1.58-1.79-2.32-2.74l1.92-1.63c.69.89,1.41,1.74,2.17,2.57l-1.78,1.8ZM19.66,77.28c-.92-.75-1.81-1.53-2.66-2.35l1.68-1.9c.8.77,1.63,1.51,2.5,2.21l-1.52,2.05ZM24.44,80.64c-1.01-.61-2-1.26-2.95-1.95l1.41-2.13c.9.65,1.83,1.26,2.78,1.84l-1.24,2.24ZM29.61,83.28c-1.08-.46-2.13-.96-3.16-1.51l1.12-2.31c.97.51,1.97.99,2.98,1.42l-.94,2.4ZM35.08,85.19c-1.13-.31-2.25-.67-3.35-1.07l.82-2.45c1.04.38,2.1.72,3.17,1.01l-.63,2.51ZM40.72,86.33c-1.16-.15-2.3-.35-3.44-.6l.5-2.54c1.08.23,2.16.42,3.25.57l-.31,2.57ZM46.39,86.71h-.03c-1.13,0-2.25-.05-3.38-.13l.19-2.58c1.06.08,2.12.13,3.19.13h.03v2.59ZM52.07,86.33c-1.15.15-2.31.26-3.47.32l-.12-2.59c1.1-.06,2.19-.16,3.28-.31l.32,2.57ZM57.71,85.18c-1.11.31-2.23.57-3.36.78l-.44-2.55c1.07-.2,2.12-.45,3.17-.74l.63,2.5ZM63.18,83.26c-1.08.46-2.17.88-3.28,1.25l-.75-2.47c1.05-.35,2.08-.75,3.1-1.18l.94,2.4ZM68.34,80.6c-1.01.61-2.04,1.17-3.09,1.7l-1.06-2.34c.99-.49,1.97-1.03,2.91-1.6l1.24,2.24ZM73.12,77.24c-.91.75-1.86,1.45-2.84,2.12l-1.35-2.17c.92-.63,1.81-1.29,2.67-1.99l1.52,2.04ZM77.41,73.2c-.81.88-1.66,1.72-2.54,2.53l-1.63-1.95c.83-.76,1.62-1.55,2.38-2.37l1.78,1.8ZM81.08,68.58c-.67.98-1.39,1.93-2.14,2.86l-1.88-1.69c.71-.86,1.38-1.76,2.01-2.68l2.01,1.51ZM84.09,63.39c-.53,1.09-1.1,2.15-1.73,3.19l-2.09-1.38c.58-.97,1.12-1.96,1.61-2.98l2.21,1.17ZM86.3,57.8c-.36,1.17-.78,2.33-1.26,3.47l-2.27-1.03c.44-1.06.83-2.14,1.17-3.24l2.35.8ZM87.65,51.94c-.18,1.2-.42,2.39-.71,3.58l-2.4-.65c.27-1.1.49-2.21.66-3.33l2.44.41ZM88.1,45.95v.02c0,1.19-.05,2.39-.16,3.58l-2.46-.24c.1-1.11.15-2.22.15-3.33v-.02h2.48ZM87.64,39.97c.19,1.21.31,2.43.39,3.66l-2.47.16c-.07-1.14-.19-2.28-.36-3.41l2.44-.41ZM86.29,34.11c.36,1.15.67,2.32.92,3.5l-2.42.57c-.24-1.1-.52-2.19-.86-3.26l2.35-.8ZM84.08,28.52c.53,1.09,1.01,2.19,1.43,3.32l-2.3.96c-.4-1.05-.84-2.09-1.34-3.1l2.21-1.17ZM81.06,23.34c.69,1,1.33,2.04,1.92,3.1l-2.14,1.31c-.56-.99-1.16-1.96-1.8-2.9l2.01-1.51ZM77.38,18.72c.81.88,1.58,1.79,2.31,2.74l-1.92,1.63c-.69-.89-1.41-1.74-2.17-2.57l1.78-1.8ZM73.09,14.68c.92.75,1.8,1.53,2.66,2.36l-1.68,1.9c-.8-.77-1.63-1.51-2.49-2.21l1.52-2.05ZM68.31,11.32c1.01.61,1.99,1.26,2.95,1.96l-1.41,2.13c-.9-.65-1.82-1.27-2.78-1.84l1.24-2.24ZM63.15,8.67c1.07.46,2.13.96,3.16,1.51l-1.12,2.31c-.97-.52-1.96-.99-2.98-1.43l.94-2.4ZM57.67,6.76c1.13.31,2.25.67,3.35,1.07l-.82,2.44c-1.04-.38-2.09-.72-3.17-1.01l.63-2.51ZM52.04,5.61c1.16.15,2.3.36,3.44.61l-.51,2.54c-1.07-.24-2.16-.43-3.25-.57l.31-2.57Z"/>
      </g>
      <g class="cls-5">
        <path class="cls-2" d="M46.3,5.23h.06c1.14,0,2.28.05,3.41.14l-.19,2.58c-1.07-.09-2.15-.13-3.22-.13h-.06v-2.59ZM40.61,5.62c1.15-.16,2.31-.27,3.47-.33l.13,2.59c-1.1.06-2.19.16-3.28.31l-.32-2.57ZM34.98,6.77c1.11-.31,2.23-.57,3.36-.78l.44,2.55c-1.07.2-2.12.45-3.17.74l-.63-2.5ZM29.51,8.7c1.08-.46,2.17-.88,3.28-1.25l.76,2.47c-1.05.35-2.08.75-3.09,1.18l-.94-2.4ZM24.35,11.35c1.01-.61,2.04-1.18,3.09-1.7l1.06,2.34c-.99.49-1.97,1.03-2.91,1.6l-1.24-2.24ZM19.58,14.73c.92-.75,1.86-1.45,2.84-2.12l1.35,2.17c-.92.63-1.81,1.29-2.67,2l-1.52-2.04ZM15.29,18.77c.81-.88,1.65-1.72,2.54-2.53l1.63,1.95c-.83.76-1.62,1.55-2.38,2.37l-1.78-1.8ZM11.62,23.39c.67-.98,1.38-1.94,2.14-2.86l1.88,1.69c-.71.86-1.38,1.76-2,2.68l-2.01-1.5ZM8.61,28.58c.53-1.09,1.1-2.15,1.72-3.19l2.1,1.38c-.58.97-1.12,1.97-1.61,2.98l-2.21-1.17ZM6.41,34.18c.36-1.18.78-2.33,1.25-3.47l2.27,1.03c-.44,1.06-.83,2.14-1.17,3.24l-2.35-.8ZM5.07,40.04c.18-1.2.42-2.4.71-3.58l2.4.65c-.27,1.1-.49,2.21-.66,3.34l-2.45-.4ZM4.62,46.02v-.05h0c0-1.19.05-2.37.16-3.55l2.46.24c-.1,1.1-.15,2.2-.15,3.3h0v.05h-2.48ZM5.08,52.01c-.19-1.21-.32-2.43-.39-3.66l2.47-.16c.07,1.14.19,2.28.36,3.41l-2.44.41ZM6.44,57.86c-.36-1.15-.67-2.32-.92-3.5l2.41-.57c.24,1.1.52,2.19.86,3.26l-2.35.81ZM8.66,63.45c-.53-1.08-1.01-2.19-1.43-3.32l2.3-.96c.4,1.05.85,2.08,1.34,3.1l-2.21,1.18ZM11.68,68.63c-.69-1-1.33-2.03-1.92-3.09l2.13-1.31c.56.99,1.16,1.96,1.8,2.9l-2.01,1.51ZM15.36,73.25c-.81-.88-1.58-1.79-2.32-2.74l1.92-1.63c.69.89,1.41,1.74,2.17,2.57l-1.78,1.8ZM19.66,77.28c-.92-.75-1.81-1.53-2.66-2.35l1.68-1.9c.8.77,1.63,1.51,2.5,2.21l-1.52,2.05ZM24.44,80.64c-1.01-.61-2-1.26-2.95-1.95l1.41-2.13c.9.65,1.83,1.26,2.78,1.84l-1.24,2.24ZM29.61,83.28c-1.08-.46-2.13-.96-3.16-1.51l1.12-2.31c.97.51,1.97.99,2.98,1.42l-.94,2.4ZM35.08,85.19c-1.13-.31-2.25-.67-3.35-1.07l.82-2.45c1.04.38,2.1.72,3.17,1.01l-.63,2.51ZM40.72,86.33c-1.16-.15-2.3-.35-3.44-.6l.5-2.54c1.08.23,2.16.42,3.25.57l-.31,2.57ZM46.39,86.71h-.03c-1.13,0-2.25-.05-3.38-.13l.19-2.58c1.06.08,2.12.13,3.19.13h.03v2.59ZM52.07,86.33c-1.15.15-2.31.26-3.47.32l-.12-2.59c1.1-.06,2.19-.16,3.28-.31l.32,2.57ZM57.71,85.18c-1.11.31-2.23.57-3.36.78l-.44-2.55c1.07-.2,2.12-.45,3.17-.74l.63,2.5ZM63.18,83.26c-1.08.46-2.17.88-3.28,1.25l-.75-2.47c1.05-.35,2.08-.75,3.1-1.18l.94,2.4ZM68.34,80.6c-1.01.61-2.04,1.17-3.09,1.7l-1.06-2.34c.99-.49,1.97-1.03,2.91-1.6l1.24,2.24ZM73.12,77.24c-.91.75-1.86,1.45-2.84,2.12l-1.35-2.17c.92-.63,1.81-1.29,2.67-1.99l1.52,2.04ZM77.41,73.2c-.81.88-1.66,1.72-2.54,2.53l-1.63-1.95c.83-.76,1.62-1.55,2.38-2.37l1.78,1.8ZM81.08,68.58c-.67.98-1.39,1.93-2.14,2.86l-1.88-1.69c.71-.86,1.38-1.76,2.01-2.68l2.01,1.51ZM84.09,63.39c-.53,1.09-1.1,2.15-1.73,3.19l-2.09-1.38c.58-.97,1.12-1.96,1.61-2.98l2.21,1.17ZM86.3,57.8c-.36,1.17-.78,2.33-1.26,3.47l-2.27-1.03c.44-1.06.83-2.14,1.17-3.24l2.35.8ZM87.65,51.94c-.18,1.2-.42,2.39-.71,3.58l-2.4-.65c.27-1.1.49-2.21.66-3.33l2.44.41ZM88.1,45.95v.02c0,1.19-.05,2.39-.16,3.58l-2.46-.24c.1-1.11.15-2.22.15-3.33v-.02h2.48ZM87.64,39.97c.19,1.21.31,2.43.39,3.66l-2.47.16c-.07-1.14-.19-2.28-.36-3.41l2.44-.41ZM86.29,34.11c.36,1.15.67,2.32.92,3.5l-2.42.57c-.24-1.1-.52-2.19-.86-3.26l2.35-.8ZM84.08,28.52c.53,1.09,1.01,2.19,1.43,3.32l-2.3.96c-.4-1.05-.84-2.09-1.34-3.1l2.21-1.17ZM81.06,23.34c.69,1,1.33,2.04,1.92,3.1l-2.14,1.31c-.56-.99-1.16-1.96-1.8-2.9l2.01-1.51ZM77.38,18.72c.81.88,1.58,1.79,2.31,2.74l-1.92,1.63c-.69-.89-1.41-1.74-2.17-2.57l1.78-1.8ZM73.09,14.68c.92.75,1.8,1.53,2.66,2.36l-1.68,1.9c-.8-.77-1.63-1.51-2.49-2.21l1.52-2.05ZM68.31,11.32c1.01.61,1.99,1.26,2.95,1.96l-1.41,2.13c-.9-.65-1.82-1.27-2.78-1.84l1.24-2.24ZM63.15,8.67c1.07.46,2.13.96,3.16,1.51l-1.12,2.31c-.97-.52-1.96-.99-2.98-1.43l.94-2.4ZM57.67,6.76c1.13.31,2.25.67,3.35,1.07l-.82,2.44c-1.04-.38-2.09-.72-3.17-1.01l.63-2.51ZM52.04,5.61c1.16.15,2.3.36,3.44.61l-.51,2.54c-1.07-.24-2.16-.43-3.25-.57l.31-2.57Z"/>
      </g>
    </g>
  </g>
  <g>
    <path class="cls-2" d="M65.88,46.43c.17,1.38.33,3.2.65,5,.24,1.38,1.19,2.21,2.45,2.6,1.37.42,2.73.39,4.08-.08,1.36-.47,2.25-1.42,2.47-2.89.45-3.01.56-6.03.14-9.06-.48-3.51-2.72-4.22-5.19-4.13-.56.02-1.12.21-1.67.38-1.42.46-2.3,1.5-2.51,3.01-.21,1.56-.27,3.14-.43,5.18M86.12,46.11c-.04,2.43-.43,4.77-1.2,7.04-1.04,3.07-2.98,5.31-5.83,6.55-5.54,2.4-11.09,2.51-16.59-.24-3.49-1.75-5.5-4.7-6.36-8.58-.74-3.35-.61-6.73.13-10.03.91-4.06,3.17-7.03,6.99-8.6,5.24-2.15,10.43-2.1,15.59.21,3.98,1.78,6.16,5.05,6.84,9.45.21,1.39.3,2.8.44,4.19"/>
    <path class="cls-2" d="M34,58.7c-.07.83-.11,1.37-.17,1.99h-5.82v-10.5h5.45c.92,1.43,2.12,2.73,3.78,3.51,2.23,1.04,4.53,1.41,6.93.92.47-.1.96-.26,1.38-.51.66-.4.71-1.11.09-1.56-.53-.38-1.16-.64-1.77-.84-2.96-.96-5.93-1.89-8.9-2.82-1.83-.57-3.43-1.54-4.87-2.86-3.74-3.41-3.12-11.4,1.83-13.76,1.77-.85,3.57-1.44,5.52-1.5,1.84-.05,3.69-.08,5.47.49,1.2.38,2.36.92,3.53,1.4.4.16.78.37,1.28.6.07-.64.12-1.09.19-1.63h5.65v9.71h-5.65c-2.27-3.12-5.55-4.15-9.19-4.26-1.08-.03-2.14.16-2.59,1.46.19,1.01.92,1.35,1.73,1.6,3.29,1,6.6,1.94,9.86,3.03,3.12,1.04,5.57,3.07,6.48,6.44,1.26,4.68-.62,9.43-5.77,11.08-4.56,1.47-8.95.83-13.19-1.35-.35-.18-.71-.36-1.25-.64"/>
    <path class="cls-2" d="M21.74,53.85h4.08v6.9H7.97v-6.83h3.86c.37-1.13.42-14.42.07-15.84h-4v-6.98h17.87v6.98h-4.02v15.77Z"/>
    <path class="cls-2" d="M27.43,72.3c.2.34.24.48.34.55,2.76,2.1,5.79,3.64,9.07,4.63.71.21,1.16-.12,1.34-.71-2.56-2.1-5.05-4.15-7.67-6.31-.91.55-1.95,1.17-3.07,1.84M53.81,76.76c.35.7.85.91,1.54.69,3.1-.98,5.98-2.44,8.63-4.38.23-.17.38-.47.67-.82-1.21-.69-2.26-1.3-3.19-1.83-2.63,2.18-5.1,4.23-7.65,6.34M53.02,77.87c-2.95-3.51-11.49-3.15-13.91-.06,1.27,1.41,11.81,1.48,13.91.06M50.52,75.2c.77.32,1.43.6,2.08.87,2.83-1.68,5.45-3.49,7.62-6.19-1.78-.95-3.46-1.62-5.28-1.92-1.47,2.41-2.9,4.75-4.42,7.24M31.66,69.84c.42.54.6.87.86,1.09,1.9,1.53,3.78,3.08,5.73,4.53,1.18.88,2.07.65,3.13-.55-1.43-2.35-2.86-4.69-4.36-7.14-1.75.67-3.42,1.31-5.37,2.06M38.22,67.69c1.36,2.67,2.75,5,4.54,7.13.95-.15,1.85-.3,2.69-.44.29-2.11.19-6.8-.18-7.74-2.31.09-4.63.24-7.05,1.04M53.72,67.68c-2.33-.8-4.71-.95-7.27-1.01,0,2.69-.08,5.18.05,7.77,1.12.13,2.07.24,2.92.34,1.9-2.37,3.8-5.48,4.31-7.1M18.75,64.47h1.03c1.84,2.7,3.96,5.15,6.63,7.33,1.13-.68,2.28-1.37,3.52-2.12-1.25-1.77-2.4-3.4-3.56-5.04.73-.5,1.03-.06,1.37.4.89,1.22,1.81,2.42,2.72,3.62.12.16.3.28.47.44,1.92-.73,3.82-1.45,5.84-2.21-.36-.84-.68-1.57-1.03-2.38.32-.04.57-.08.85-.12.39.75.76,1.45,1.15,2.2,2.55-.33,5.05-.65,7.65-.98.09-.31.2-.66.33-1.09.16-.02.35-.05.59-.09.08.39.16.75.23,1.11,2.55.35,5.05.7,7.65,1.05.86-.36.46-2.18,2.07-2.17-.3.84-.56,1.56-.88,2.45,1.92.73,3.77,1.45,5.75,2.21,1.14-1.51,2.27-3.02,3.47-4.62.17-.01.44-.03.85-.05-.87,1.92-2.22,3.38-3.43,5.14,1.22.74,2.36,1.44,3.55,2.16,2.65-1.99,4.61-4.55,6.56-7.24.26-.01.56-.03,1.07-.05-6.28,9.38-14.61,14.58-25.42,15.23-6.67.4-12.9-1.15-18.63-4.76-4.18-2.64-7.65-6.07-10.43-10.45"/>
    <path class="cls-2" d="M53.54,15.08c2.57,2.08,5.07,4.1,7.7,6.23.97-.48,2.05-1.06,3.14-1.99-3.17-2.36-6.38-4.13-10.01-5.05-.31.3-.57.55-.83.8M27.2,19.5c1.14.84,2.2,1.49,3.18,1.93,2.63-2.13,5.12-4.15,7.61-6.18-.57-.91-.87-1.07-1.78-.73-2.85,1.06-5.61,2.32-8.1,4.14-.29.21-.53.48-.92.84M41.3,16.73c-.77-.34-1.4-.62-2.03-.91-2.84,1.65-5.37,3.57-7.74,6.2,1.95.81,3.61,1.65,5.43,1.85,1.45-2.39,2.84-4.68,4.34-7.14M52.74,14.02c-2.58-1.52-12.23-1.34-13.88.04,2.31,3.22,11.15,3.31,13.88-.04M60.05,21.8c-2.35-2.55-4.87-4.51-7.76-6.04-.68.32-1.32.62-2.05.97,1.52,2.47,2.95,4.79,4.41,7.17,1.83-.43,3.6-.96,5.4-2.09M53.56,24.16c-1.35-2.62-2.74-4.95-4.52-7.06-.91.16-1.77.3-2.71.47-.14,2.6-.29,5.04.15,7.59,2.4-.05,4.65-.27,7.09-1M45.29,24.95v-7.44c-.96-.14-1.87-.27-2.82-.4-1.72,2.15-3.2,4.4-4.4,6.85,1.15.84,5.35,1.41,7.22.99M65.44,27.31c-.8.22-1.12-.08-1.44-.53-.96-1.37-1.98-2.71-3.01-4.11-1.97.74-3.83,1.44-5.85,2.21.28.83.54,1.57.8,2.34-.67.36-.95-.08-1.19-.61-.21-.46-.43-.91-.66-1.38-2.6.33-5.13.66-7.71.99-.07.39-.13.75-.2,1.15-.25-.02-.45-.03-.69-.05-.11-.38-.21-.73-.32-1.13-2.57-.32-5.1-.63-7.5-.93-1.05.48-.55,2.36-2.2,2.21.34-.87.64-1.64.99-2.54-1.96-.73-3.81-1.43-5.81-2.18-1.01,1.36-1.98,2.67-2.94,3.99-.47.64-.46.65-1.37.75.83-1.96,2.23-3.45,3.42-5.23-1.21-.73-2.32-1.4-3.49-2.11-1.74,1.25-3.17,2.84-4.55,4.46-.59.7-1.12,1.47-1.69,2.2-.36.46-.37.45-1.12.45,3.73-6.95,12.88-14.01,23.59-14.93,12.77-1.09,22.89,4,30.56,14.96h-1.12c-1.84-2.72-3.98-5.17-6.64-7.23-1.08.66-2.17,1.31-3.41,2.06,1.19,1.74,2.32,3.41,3.53,5.18"/>
  </g>
</svg>