<?xml version="1.0" encoding="UTF-8"?>
<svg id="_Слой_1" data-name="Слой 1" xmlns="http://www.w3.org/2000/svg" viewBox="0 0 72 72">
  <defs>
    <style>
      .cls-1 {
        fill: #0056b3;
      }

      .cls-2 {
        fill: #eff6ff;
      }
    </style>
  </defs>
  <path class="cls-2" d="M72,36c0,1.18-.06,2.36-.17,3.53-.12,1.17-.29,2.34-.52,3.49-.23,1.16-.52,2.3-.86,3.43-.34,1.13-.74,2.24-1.19,3.33-.45,1.09-.96,2.15-1.51,3.19-.56,1.04-1.16,2.05-1.82,3.03-.65.98-1.36,1.93-2.11,2.84-.75.91-1.54,1.78-2.37,2.62-.83.83-1.71,1.62-2.62,2.37-.91.75-1.86,1.45-2.84,2.11-.98.65-1.99,1.26-3.03,1.82-1.04.56-2.1,1.06-3.19,1.51-1.09.45-2.2.85-3.33,1.19-1.13.34-2.27.63-3.43.86-1.16.23-2.32.4-3.49.52-1.17.11-2.35.17-3.53.17s-2.36-.06-3.53-.17c-1.17-.12-2.34-.29-3.49-.52-1.16-.23-2.3-.52-3.43-.86-1.13-.34-2.24-.74-3.33-1.19-1.09-.45-2.15-.95-3.19-1.51s-2.05-1.16-3.03-1.82c-.98-.65-1.93-1.36-2.84-2.11-.91-.75-1.78-1.54-2.62-2.37-.83-.83-1.62-1.71-2.37-2.62-.75-.91-1.45-1.86-2.1-2.84-.65-.98-1.26-1.99-1.82-3.03-.56-1.04-1.06-2.1-1.51-3.19-.45-1.09-.85-2.2-1.19-3.33-.34-1.13-.63-2.27-.86-3.43-.23-1.16-.4-2.32-.52-3.49-.11-1.17-.17-2.35-.17-3.53s.06-2.35.17-3.53c.12-1.17.29-2.34.52-3.49.23-1.16.52-2.3.86-3.43.34-1.13.74-2.24,1.19-3.33.45-1.09.96-2.15,1.51-3.19.56-1.04,1.16-2.05,1.82-3.03.65-.98,1.36-1.93,2.1-2.84.75-.91,1.54-1.78,2.37-2.62.83-.83,1.71-1.62,2.62-2.37.91-.75,1.86-1.45,2.84-2.11.98-.65,1.99-1.26,3.03-1.82s2.1-1.06,3.19-1.51c1.09-.45,2.2-.85,3.33-1.19,1.13-.34,2.27-.63,3.43-.86,1.16-.23,2.32-.4,3.49-.52,1.17-.11,2.35-.17,3.53-.17s2.35.06,3.53.17c1.17.12,2.34.29,3.49.52,1.16.23,2.3.52,3.43.86,1.13.34,2.24.74,3.33,1.19,1.09.45,2.15.95,3.19,1.51,1.04.56,2.05,1.16,3.03,1.82.98.65,1.93,1.36,2.84,2.11.91.75,1.78,1.54,2.62,2.37.83.83,1.62,1.71,2.37,2.62.75.91,1.45,1.86,2.11,2.84.65.98,1.26,1.99,1.82,3.03.56,1.04,1.06,2.1,1.51,3.19.45,1.09.85,2.2,1.19,3.33.34,1.13.63,2.27.86,3.43.23,1.16.4,2.32.52,3.49.11,1.17.17,2.35.17,3.53"/>
  <path class="cls-1" d="M28.29,34.14v11.61c.84.29,2.9-.32,2.9-1.09v-10.52h2.9v10.52c0,1.37,3.63,1.37,3.63,0v-10.52h2.9v10.52c0,.77,2.06,1.38,2.9,1.09v-11.61h3.63v11.24c0,.53,3.18,1.68,3.53,3.01l-.99,2.43h-27.56l-.99-2.43c.35-1.33,3.53-2.48,3.53-3.01v-11.24h3.63Z"/>
  <path class="cls-1" d="M50.58,29.62c-.07.18-2.58,2.27-3.05,2.36-2.04.39-23.12.43-24.17-.18-1.1-.64-3.36-4.12-1.09-5.49,1.19-.72,12.89-5.67,13.63-5.67s13.56,5.39,14.14,5.88c.5.41.77.81.76,1.48.15.61-.01,1.07-.24,1.62M38,26.15c0-1.16-.94-2.1-2.11-2.1s-2.1.94-2.1,2.1.94,2.11,2.1,2.11,2.11-.94,2.11-2.11"/>
</svg>