<?xml version="1.0" encoding="UTF-8"?>
<svg id="_Слой_1" data-name="Слой 1" xmlns="http://www.w3.org/2000/svg" xmlns:xlink="http://www.w3.org/1999/xlink" viewBox="0 0 92 92">
  <defs>
    <style>
      .cls-1 {
        fill: #0056b3;
      }

      .cls-2 {
        fill: #fff;
      }

      .cls-3 {
        fill: none;
      }

      .cls-4 {
        clip-path: url(#clippath-1);
      }

      .cls-5 {
        fill: #fff800;
      }

      .cls-6 {
        clip-path: url(#clippath-3);
      }

      .cls-7 {
        isolation: isolate;
        opacity: .7;
      }

      .cls-8 {
        clip-path: url(#clippath-2);
      }

      .cls-9 {
        clip-path: url(#clippath);
      }
    </style>
    <clipPath id="clippath">
      <path class="cls-3" d="M38.01,6.04c-2.61.52-5.14,1.29-7.6,2.3s-4.79,2.27-7,3.74c-2.21,1.48-4.26,3.16-6.14,5.04l.8.8c1.83-1.83,3.82-3.46,5.97-4.9,2.15-1.44,4.42-2.65,6.81-3.64,2.39-.99,4.85-1.74,7.39-2.24,2.54-.5,5.1-.76,7.68-.76s5.15.25,7.68.76c2.53.51,5,1.25,7.39,2.24,2.39.99,4.66,2.2,6.81,3.64,2.15,1.44,4.14,3.07,5.97,4.9l.79-.8c-1.88-1.88-3.93-3.56-6.14-5.04-2.21-1.48-4.55-2.73-7-3.74-2.46-1.02-4.99-1.79-7.6-2.3-2.61-.52-5.24-.78-7.9-.78s-5.29.26-7.9.78"/>
    </clipPath>
    <clipPath id="clippath-1">
      <path class="cls-3" d="M73.75,73.6c-1.83,1.83-3.82,3.46-5.97,4.9-2.15,1.44-4.42,2.65-6.81,3.64-2.39.99-4.85,1.74-7.39,2.24-2.54.5-5.1.76-7.68.76s-5.15-.25-7.68-.76c-2.54-.5-5-1.25-7.39-2.24-2.39-.99-4.66-2.2-6.81-3.64-2.15-1.44-4.14-3.07-5.97-4.9l-.8.79c1.88,1.88,3.93,3.56,6.14,5.04,2.21,1.48,4.54,2.73,7,3.74,2.46,1.02,4.99,1.79,7.6,2.3,2.61.52,5.24.78,7.9.78s5.29-.26,7.9-.78c2.61-.52,5.14-1.29,7.6-2.3,2.46-1.02,4.79-2.27,7-3.74,2.21-1.48,4.26-3.16,6.14-5.04l-.79-.79"/>
    </clipPath>
    <clipPath id="clippath-2">
      <path class="cls-3" d="M73.75,17.92c1.83,1.83,3.46,3.82,4.9,5.97,1.44,2.15,2.65,4.42,3.64,6.81.99,2.39,1.74,4.85,2.24,7.39.5,2.54.76,5.1.76,7.68s-.25,5.15-.76,7.68c-.5,2.54-1.25,5-2.24,7.39-.99,2.39-2.2,4.66-3.64,6.81-1.44,2.15-3.07,4.14-4.9,5.97l.79.79c1.88-1.88,3.56-3.93,5.04-6.14,1.48-2.21,2.73-4.54,3.74-7,1.02-2.46,1.79-4.99,2.3-7.6.52-2.61.78-5.24.78-7.9s-.26-5.29-.78-7.9c-.52-2.61-1.29-5.14-2.3-7.6-1.02-2.46-2.27-4.79-3.74-7-1.48-2.21-3.16-4.26-5.04-6.14l-.79.8Z"/>
    </clipPath>
    <clipPath id="clippath-3">
      <path class="cls-3" d="M17.27,17.12c-1.88,1.88-3.56,3.93-5.04,6.14-1.48,2.21-2.72,4.54-3.74,7-1.02,2.46-1.79,4.99-2.31,7.6-.52,2.61-.78,5.24-.78,7.9s.26,5.29.78,7.9c.52,2.61,1.29,5.14,2.31,7.6,1.02,2.46,2.27,4.79,3.74,7,1.48,2.21,3.16,4.26,5.04,6.14l.8-.79c-1.83-1.83-3.46-3.82-4.9-5.97-1.44-2.15-2.65-4.42-3.64-6.81-.99-2.39-1.74-4.85-2.24-7.39-.5-2.54-.76-5.1-.76-7.68s.25-5.15.76-7.68c.51-2.54,1.25-5,2.24-7.39.99-2.39,2.2-4.66,3.64-6.81,1.44-2.15,3.07-4.14,4.9-5.97l-.8-.8"/>
    </clipPath>
  </defs>
  <path class="cls-1" d="M90.91,45.76c0,1.47-.07,2.94-.22,4.41-.14,1.47-.36,2.92-.65,4.37-.29,1.45-.64,2.87-1.07,4.28-.43,1.41-.92,2.8-1.49,4.16-.56,1.36-1.19,2.69-1.89,3.99-.69,1.3-1.45,2.56-2.27,3.79-.82,1.23-1.7,2.41-2.63,3.55-.93,1.14-1.92,2.23-2.96,3.27s-2.13,2.03-3.27,2.96c-1.14.93-2.32,1.81-3.55,2.63-1.23.82-2.49,1.58-3.79,2.27-1.3.7-2.63,1.32-3.99,1.89-1.36.56-2.75,1.06-4.16,1.49-1.41.43-2.84.79-4.28,1.07-1.45.29-2.9.5-4.37.65-1.47.14-2.94.22-4.41.22s-2.94-.07-4.41-.22c-1.47-.14-2.92-.36-4.37-.65-1.45-.29-2.87-.64-4.28-1.07-1.41-.43-2.8-.92-4.16-1.49-1.36-.57-2.69-1.19-3.99-1.89-1.3-.69-2.56-1.45-3.79-2.27-1.22-.82-2.41-1.7-3.55-2.63-1.14-.93-2.23-1.92-3.27-2.96s-2.03-2.13-2.97-3.27c-.94-1.14-1.81-2.32-2.63-3.55-.82-1.23-1.58-2.49-2.27-3.79-.69-1.3-1.32-2.63-1.89-3.99-.56-1.36-1.06-2.75-1.49-4.16-.43-1.41-.78-2.84-1.07-4.28-.29-1.45-.5-2.9-.65-4.37-.15-1.47-.22-2.94-.22-4.41s.07-2.94.22-4.41c.14-1.47.36-2.92.65-4.37.29-1.45.64-2.87,1.07-4.28.43-1.41.92-2.8,1.49-4.16.56-1.36,1.19-2.69,1.89-3.99.69-1.3,1.45-2.56,2.27-3.79.82-1.23,1.69-2.41,2.63-3.55.93-1.14,1.92-2.23,2.97-3.27,1.04-1.04,2.13-2.03,3.27-2.97,1.14-.93,2.32-1.81,3.55-2.63,1.23-.82,2.49-1.58,3.79-2.27,1.3-.7,2.63-1.33,3.99-1.89,1.36-.56,2.75-1.06,4.16-1.49,1.41-.43,2.84-.79,4.28-1.07,1.44-.29,2.9-.5,4.37-.65,1.47-.14,2.94-.22,4.41-.22s2.94.07,4.41.22c1.47.14,2.92.36,4.37.65,1.45.29,2.87.64,4.28,1.07,1.41.43,2.8.92,4.16,1.49,1.36.56,2.69,1.19,3.99,1.89,1.3.69,2.56,1.45,3.79,2.27,1.23.82,2.41,1.7,3.55,2.63,1.14.93,2.23,1.92,3.27,2.97,1.04,1.04,2.03,2.13,2.96,3.27.94,1.14,1.81,2.32,2.63,3.55.82,1.23,1.58,2.49,2.27,3.79.7,1.3,1.32,2.63,1.89,3.99.56,1.36,1.06,2.75,1.49,4.16.43,1.41.79,2.84,1.07,4.28.29,1.45.5,2.9.65,4.37.15,1.47.22,2.94.22,4.41"/>
  <g class="cls-7">
    <g>
      <g class="cls-9">
        <path class="cls-2" d="M44.97,4.03c.31,0,.62-.01.93-.01,1.14,0,2.28.05,3.42.14l-.2,2.47c-1.07-.09-2.14-.13-3.21-.13-.29,0-.59,0-.88.01l-.06-2.47ZM39.2,4.57c1.16-.19,2.32-.33,3.49-.42l.19,2.47c-1.1.09-2.2.22-3.29.39l-.4-2.44ZM33.57,5.89c1.1-.34,2.22-.64,3.35-.89l.53,2.42c-1.06.23-2.11.51-3.15.83l-.73-2.36ZM28.14,7.99c1.05-.49,2.11-.94,3.2-1.35l.86,2.32c-1.02.38-2.03.8-3.01,1.27l-1.05-2.24ZM23.05,10.84c.98-.64,1.99-1.24,3.02-1.8l1.18,2.18c-.97.52-1.92,1.09-2.84,1.69l-1.36-2.07ZM18.44,14.34c.88-.76,1.78-1.49,2.72-2.18l1.47,1.99c-.88.65-1.73,1.33-2.55,2.05l-1.63-1.86ZM14.33,18.47c.76-.88,1.56-1.73,2.39-2.55l1.73,1.77c-.78.77-1.53,1.57-2.25,2.39l-1.87-1.62ZM10.86,23.1c.63-.97,1.3-1.92,2.01-2.84l1.96,1.51c-.67.86-1.3,1.75-1.89,2.67l-2.08-1.34ZM8.04,28.21c.49-1.05,1.02-2.09,1.6-3.1l2.15,1.22c-.54.95-1.04,1.92-1.5,2.91l-2.25-1.04ZM5.97,33.65c.34-1.13.73-2.24,1.17-3.33l2.3.92c-.41,1.03-.78,2.07-1.1,3.13l-2.37-.72ZM4.68,39.28c.18-1.14.41-2.28.68-3.4l2.4.59c-.26,1.06-.47,2.12-.64,3.2l-2.44-.38ZM4.18,45.05c.02-1.15.09-2.29.2-3.44l2.46.25c-.11,1.07-.17,2.15-.19,3.23l-2.47-.04ZM4.47,50.77c-.14-1.15-.23-2.3-.27-3.46l2.47-.09c.04,1.09.13,2.17.26,3.25l-2.46.3ZM5.57,56.47c-.29-1.11-.54-2.23-.74-3.36l2.44-.43c.19,1.06.42,2.12.7,3.16l-2.39.64ZM7.46,61.99c-.45-1.08-.86-2.18-1.23-3.29l2.35-.77c.34,1.05.73,2.08,1.16,3.09l-2.28.96ZM10.08,67.16c-.6-1-1.15-2.03-1.66-3.07l2.22-1.09c.48.98,1,1.95,1.57,2.89l-2.12,1.27ZM13.4,71.93c-.73-.9-1.42-1.83-2.07-2.79l2.05-1.39c.61.9,1.26,1.78,1.94,2.63l-1.93,1.55ZM17.35,76.2c-.85-.8-1.67-1.63-2.45-2.5l1.84-1.66c.73.81,1.5,1.6,2.3,2.35l-1.69,1.8ZM21.85,79.87c-.95-.67-1.87-1.38-2.76-2.12l1.59-1.9c.84.7,1.7,1.37,2.59,2l-1.43,2.02ZM26.84,82.89c-1.04-.54-2.06-1.11-3.05-1.73l1.31-2.1c.93.58,1.89,1.12,2.87,1.63l-1.13,2.2ZM32.17,85.17c-1.1-.38-2.18-.81-3.25-1.29l1.01-2.26c1,.45,2.02.85,3.05,1.21l-.82,2.34ZM37.75,86.69c-1.13-.23-2.24-.5-3.35-.81l.68-2.38c1.04.3,2.09.55,3.15.76l-.48,2.43ZM43.54,87.43c-1.16-.07-2.32-.18-3.48-.34l.35-2.45c1.09.15,2.18.26,3.27.32l-.14,2.47ZM49.23,87.37c-1.1.09-2.21.13-3.32.13h-.09v-2.48h.09c1.04,0,2.08-.04,3.12-.12l.2,2.47ZM54.99,86.5c-1.14.25-2.29.46-3.44.62l-.33-2.45c1.09-.15,2.17-.34,3.24-.58l.54,2.42ZM60.57,84.84c-1.1.41-2.21.78-3.34,1.1l-.67-2.38c1.06-.3,2.11-.64,3.14-1.03l.87,2.32ZM65.83,82.44c-1.02.55-2.06,1.06-3.12,1.53l-1-2.27c1-.44,1.97-.92,2.93-1.44l1.18,2.18ZM70.74,79.31c-.93.69-1.9,1.34-2.89,1.95l-1.3-2.1c.93-.58,1.84-1.19,2.72-1.84l1.47,1.99ZM75.16,75.53c-.83.82-1.7,1.6-2.59,2.34l-1.58-1.9c.84-.7,1.66-1.43,2.44-2.2l1.73,1.77ZM79.02,71.18c-.71.92-1.46,1.82-2.24,2.68l-1.83-1.67c.74-.81,1.44-1.65,2.1-2.52l1.96,1.51ZM82.23,66.33c-.58,1.02-1.19,2.01-1.85,2.98l-2.04-1.4c.62-.91,1.2-1.84,1.74-2.8l2.15,1.22ZM84.72,61.12c-.42,1.07-.89,2.12-1.4,3.15l-2.22-1.1c.48-.97.92-1.96,1.32-2.97l2.3.91ZM86.48,55.54c-.27,1.13-.59,2.25-.96,3.35l-2.35-.78c.34-1.04.64-2.09.9-3.15l2.41.58ZM87.45,49.8c-.11,1.18-.28,2.35-.49,3.51l-2.43-.45c.2-1.09.36-2.19.46-3.3l2.46.24ZM87.61,44.11c.02.55.03,1.1.03,1.65,0,.58-.01,1.16-.04,1.74l-2.47-.1c.02-.55.03-1.09.03-1.64,0-.52-.01-1.03-.03-1.55l2.47-.1ZM86.98,38.31c.21,1.16.37,2.33.48,3.51l-2.46.23c-.1-1.11-.26-2.21-.46-3.3l2.44-.44ZM85.56,32.72c.36,1.1.68,2.22.95,3.35l-2.41.57c-.25-1.06-.55-2.11-.89-3.15l2.35-.77ZM83.36,27.34c.51,1.03.97,2.09,1.39,3.16l-2.3.9c-.4-1.01-.83-2-1.31-2.97l2.22-1.09ZM80.43,22.3c.66.97,1.27,1.96,1.85,2.98l-2.16,1.21c-.54-.96-1.12-1.89-1.74-2.8l2.05-1.39ZM76.85,17.74c.78.86,1.52,1.76,2.23,2.68l-1.97,1.5c-.66-.87-1.36-1.71-2.1-2.52l1.83-1.66ZM72.65,13.71c.9.75,1.76,1.53,2.59,2.35l-1.74,1.76c-.78-.77-1.59-1.51-2.43-2.21l1.59-1.9ZM67.94,10.31c.99.61,1.95,1.27,2.88,1.96l-1.48,1.99c-.88-.65-1.78-1.27-2.71-1.85l1.31-2.1ZM62.8,7.6c1.06.47,2.1.98,3.12,1.54l-1.19,2.17c-.96-.52-1.93-1.01-2.93-1.45l1-2.26ZM57.32,5.61c1.13.32,2.24.69,3.34,1.1l-.88,2.32c-1.03-.39-2.08-.74-3.14-1.04l.68-2.38ZM51.65,4.42c1.15.16,2.3.37,3.44.62l-.55,2.41c-1.07-.24-2.15-.44-3.23-.59l.34-2.45Z"/>
      </g>
      <g class="cls-4">
        <path class="cls-2" d="M44.97,4.03c.31,0,.62-.01.93-.01,1.14,0,2.28.05,3.42.14l-.2,2.47c-1.07-.09-2.14-.13-3.21-.13-.29,0-.59,0-.88.01l-.06-2.47ZM39.2,4.57c1.16-.19,2.32-.33,3.49-.42l.19,2.47c-1.1.09-2.2.22-3.29.39l-.4-2.44ZM33.57,5.89c1.1-.34,2.22-.64,3.35-.89l.53,2.42c-1.06.23-2.11.51-3.15.83l-.73-2.36ZM28.14,7.99c1.05-.49,2.11-.94,3.2-1.35l.86,2.32c-1.02.38-2.03.8-3.01,1.27l-1.05-2.24ZM23.05,10.84c.98-.64,1.99-1.24,3.02-1.8l1.18,2.18c-.97.52-1.92,1.09-2.84,1.69l-1.36-2.07ZM18.44,14.34c.88-.76,1.78-1.49,2.72-2.18l1.47,1.99c-.88.65-1.73,1.33-2.55,2.05l-1.63-1.86ZM14.33,18.47c.76-.88,1.56-1.73,2.39-2.55l1.73,1.77c-.78.77-1.53,1.57-2.25,2.39l-1.87-1.62ZM10.86,23.1c.63-.97,1.3-1.92,2.01-2.84l1.96,1.51c-.67.86-1.3,1.75-1.89,2.67l-2.08-1.34ZM8.04,28.21c.49-1.05,1.02-2.09,1.6-3.1l2.15,1.22c-.54.95-1.04,1.92-1.5,2.91l-2.25-1.04ZM5.97,33.65c.34-1.13.73-2.24,1.17-3.33l2.3.92c-.41,1.03-.78,2.07-1.1,3.13l-2.37-.72ZM4.68,39.28c.18-1.14.41-2.28.68-3.4l2.4.59c-.26,1.06-.47,2.12-.64,3.2l-2.44-.38ZM4.18,45.05c.02-1.15.09-2.29.2-3.44l2.46.25c-.11,1.07-.17,2.15-.19,3.23l-2.47-.04ZM4.47,50.77c-.14-1.15-.23-2.3-.27-3.46l2.47-.09c.04,1.09.13,2.17.26,3.25l-2.46.3ZM5.57,56.47c-.29-1.11-.54-2.23-.74-3.36l2.44-.43c.19,1.06.42,2.12.7,3.16l-2.39.64ZM7.46,61.99c-.45-1.08-.86-2.18-1.23-3.29l2.35-.77c.34,1.05.73,2.08,1.16,3.09l-2.28.96ZM10.08,67.16c-.6-1-1.15-2.03-1.66-3.07l2.22-1.09c.48.98,1,1.95,1.57,2.89l-2.12,1.27ZM13.4,71.93c-.73-.9-1.42-1.83-2.07-2.79l2.05-1.39c.61.9,1.26,1.78,1.94,2.63l-1.93,1.55ZM17.35,76.2c-.85-.8-1.67-1.63-2.45-2.5l1.84-1.66c.73.81,1.5,1.6,2.3,2.35l-1.69,1.8ZM21.85,79.87c-.95-.67-1.87-1.38-2.76-2.12l1.59-1.9c.84.7,1.7,1.37,2.59,2l-1.43,2.02ZM26.84,82.89c-1.04-.54-2.06-1.11-3.05-1.73l1.31-2.1c.93.58,1.89,1.12,2.87,1.63l-1.13,2.2ZM32.17,85.17c-1.1-.38-2.18-.81-3.25-1.29l1.01-2.26c1,.45,2.02.85,3.05,1.21l-.82,2.34ZM37.75,86.69c-1.13-.23-2.24-.5-3.35-.81l.68-2.38c1.04.3,2.09.55,3.15.76l-.48,2.43ZM43.54,87.43c-1.16-.07-2.32-.18-3.48-.34l.35-2.45c1.09.15,2.18.26,3.27.32l-.14,2.47ZM49.23,87.37c-1.1.09-2.21.13-3.32.13h-.09v-2.48h.09c1.04,0,2.08-.04,3.12-.12l.2,2.47ZM54.99,86.5c-1.14.25-2.29.46-3.44.62l-.33-2.45c1.09-.15,2.17-.34,3.24-.58l.54,2.42ZM60.57,84.84c-1.1.41-2.21.78-3.34,1.1l-.67-2.38c1.06-.3,2.11-.64,3.14-1.03l.87,2.32ZM65.83,82.44c-1.02.55-2.06,1.06-3.12,1.53l-1-2.27c1-.44,1.97-.92,2.93-1.44l1.18,2.18ZM70.74,79.31c-.93.69-1.9,1.34-2.89,1.95l-1.3-2.1c.93-.58,1.84-1.19,2.72-1.84l1.47,1.99ZM75.16,75.53c-.83.82-1.7,1.6-2.59,2.34l-1.58-1.9c.84-.7,1.66-1.43,2.44-2.2l1.73,1.77ZM79.02,71.18c-.71.92-1.46,1.82-2.24,2.68l-1.83-1.67c.74-.81,1.44-1.65,2.1-2.52l1.96,1.51ZM82.23,66.33c-.58,1.02-1.19,2.01-1.85,2.98l-2.04-1.4c.62-.91,1.2-1.84,1.74-2.8l2.15,1.22ZM84.72,61.12c-.42,1.07-.89,2.12-1.4,3.15l-2.22-1.1c.48-.97.92-1.96,1.32-2.97l2.3.91ZM86.48,55.54c-.27,1.13-.59,2.25-.96,3.35l-2.35-.78c.34-1.04.64-2.09.9-3.15l2.41.58ZM87.45,49.8c-.11,1.18-.28,2.35-.49,3.51l-2.43-.45c.2-1.09.36-2.19.46-3.3l2.46.24ZM87.61,44.11c.02.55.03,1.1.03,1.65,0,.58-.01,1.16-.04,1.74l-2.47-.1c.02-.55.03-1.09.03-1.64,0-.52-.01-1.03-.03-1.55l2.47-.1ZM86.98,38.31c.21,1.16.37,2.33.48,3.51l-2.46.23c-.1-1.11-.26-2.21-.46-3.3l2.44-.44ZM85.56,32.72c.36,1.1.68,2.22.95,3.35l-2.41.57c-.25-1.06-.55-2.11-.89-3.15l2.35-.77ZM83.36,27.34c.51,1.03.97,2.09,1.39,3.16l-2.3.9c-.4-1.01-.83-2-1.31-2.97l2.22-1.09ZM80.43,22.3c.66.97,1.27,1.96,1.85,2.98l-2.16,1.21c-.54-.96-1.12-1.89-1.74-2.8l2.05-1.39ZM76.85,17.74c.78.86,1.52,1.76,2.23,2.68l-1.97,1.5c-.66-.87-1.36-1.71-2.1-2.52l1.83-1.66ZM72.65,13.71c.9.75,1.76,1.53,2.59,2.35l-1.74,1.76c-.78-.77-1.59-1.51-2.43-2.21l1.59-1.9ZM67.94,10.31c.99.61,1.95,1.27,2.88,1.96l-1.48,1.99c-.88-.65-1.78-1.27-2.71-1.85l1.31-2.1ZM62.8,7.6c1.06.47,2.1.98,3.12,1.54l-1.19,2.17c-.96-.52-1.93-1.01-2.93-1.45l1-2.26ZM57.32,5.61c1.13.32,2.24.69,3.34,1.1l-.88,2.32c-1.03-.39-2.08-.74-3.14-1.04l.68-2.38ZM51.65,4.42c1.15.16,2.3.37,3.44.62l-.55,2.41c-1.07-.24-2.15-.44-3.23-.59l.34-2.45Z"/>
      </g>
      <g class="cls-8">
        <path class="cls-2" d="M44.97,4.03c.31,0,.62-.01.93-.01,1.14,0,2.28.05,3.42.14l-.2,2.47c-1.07-.09-2.14-.13-3.21-.13-.29,0-.59,0-.88.01l-.06-2.47ZM39.2,4.57c1.16-.19,2.32-.33,3.49-.42l.19,2.47c-1.1.09-2.2.22-3.29.39l-.4-2.44ZM33.57,5.89c1.1-.34,2.22-.64,3.35-.89l.53,2.42c-1.06.23-2.11.51-3.15.83l-.73-2.36ZM28.14,7.99c1.05-.49,2.11-.94,3.2-1.35l.86,2.32c-1.02.38-2.03.8-3.01,1.27l-1.05-2.24ZM23.05,10.84c.98-.64,1.99-1.24,3.02-1.8l1.18,2.18c-.97.52-1.92,1.09-2.84,1.69l-1.36-2.07ZM18.44,14.34c.88-.76,1.78-1.49,2.72-2.18l1.47,1.99c-.88.65-1.73,1.33-2.55,2.05l-1.63-1.86ZM14.33,18.47c.76-.88,1.56-1.73,2.39-2.55l1.73,1.77c-.78.77-1.53,1.57-2.25,2.39l-1.87-1.62ZM10.86,23.1c.63-.97,1.3-1.92,2.01-2.84l1.96,1.51c-.67.86-1.3,1.75-1.89,2.67l-2.08-1.34ZM8.04,28.21c.49-1.05,1.02-2.09,1.6-3.1l2.15,1.22c-.54.95-1.04,1.92-1.5,2.91l-2.25-1.04ZM5.97,33.65c.34-1.13.73-2.24,1.17-3.33l2.3.92c-.41,1.03-.78,2.07-1.1,3.13l-2.37-.72ZM4.68,39.28c.18-1.14.41-2.28.68-3.4l2.4.59c-.26,1.06-.47,2.12-.64,3.2l-2.44-.38ZM4.18,45.05c.02-1.15.09-2.29.2-3.44l2.46.25c-.11,1.07-.17,2.15-.19,3.23l-2.47-.04ZM4.47,50.77c-.14-1.15-.23-2.3-.27-3.46l2.47-.09c.04,1.09.13,2.17.26,3.25l-2.46.3ZM5.57,56.47c-.29-1.11-.54-2.23-.74-3.36l2.44-.43c.19,1.06.42,2.12.7,3.16l-2.39.64ZM7.46,61.99c-.45-1.08-.86-2.18-1.23-3.29l2.35-.77c.34,1.05.73,2.08,1.16,3.09l-2.28.96ZM10.08,67.16c-.6-1-1.15-2.03-1.66-3.07l2.22-1.09c.48.98,1,1.95,1.57,2.89l-2.12,1.27ZM13.4,71.93c-.73-.9-1.42-1.83-2.07-2.79l2.05-1.39c.61.9,1.26,1.78,1.94,2.63l-1.93,1.55ZM17.35,76.2c-.85-.8-1.67-1.63-2.45-2.5l1.84-1.66c.73.81,1.5,1.6,2.3,2.35l-1.69,1.8ZM21.85,79.87c-.95-.67-1.87-1.38-2.76-2.12l1.59-1.9c.84.7,1.7,1.37,2.59,2l-1.43,2.02ZM26.84,82.89c-1.04-.54-2.06-1.11-3.05-1.73l1.31-2.1c.93.58,1.89,1.12,2.87,1.63l-1.13,2.2ZM32.17,85.17c-1.1-.38-2.18-.81-3.25-1.29l1.01-2.26c1,.45,2.02.85,3.05,1.21l-.82,2.34ZM37.75,86.69c-1.13-.23-2.24-.5-3.35-.81l.68-2.38c1.04.3,2.09.55,3.15.76l-.48,2.43ZM43.54,87.43c-1.16-.07-2.32-.18-3.48-.34l.35-2.45c1.09.15,2.18.26,3.27.32l-.14,2.47ZM49.23,87.37c-1.1.09-2.21.13-3.32.13h-.09v-2.48h.09c1.04,0,2.08-.04,3.12-.12l.2,2.47ZM54.99,86.5c-1.14.25-2.29.46-3.44.62l-.33-2.45c1.09-.15,2.17-.34,3.24-.58l.54,2.42ZM60.57,84.84c-1.1.41-2.21.78-3.34,1.1l-.67-2.38c1.06-.3,2.11-.64,3.14-1.03l.87,2.32ZM65.83,82.44c-1.02.55-2.06,1.06-3.12,1.53l-1-2.27c1-.44,1.97-.92,2.93-1.44l1.18,2.18ZM70.74,79.31c-.93.69-1.9,1.34-2.89,1.95l-1.3-2.1c.93-.58,1.84-1.19,2.72-1.84l1.47,1.99ZM75.16,75.53c-.83.82-1.7,1.6-2.59,2.34l-1.58-1.9c.84-.7,1.66-1.43,2.44-2.2l1.73,1.77ZM79.02,71.18c-.71.92-1.46,1.82-2.24,2.68l-1.83-1.67c.74-.81,1.44-1.65,2.1-2.52l1.96,1.51ZM82.23,66.33c-.58,1.02-1.19,2.01-1.85,2.98l-2.04-1.4c.62-.91,1.2-1.84,1.74-2.8l2.15,1.22ZM84.72,61.12c-.42,1.07-.89,2.12-1.4,3.15l-2.22-1.1c.48-.97.92-1.96,1.32-2.97l2.3.91ZM86.48,55.54c-.27,1.13-.59,2.25-.96,3.35l-2.35-.78c.34-1.04.64-2.09.9-3.15l2.41.58ZM87.45,49.8c-.11,1.18-.28,2.35-.49,3.51l-2.43-.45c.2-1.09.36-2.19.46-3.3l2.46.24ZM87.61,44.11c.02.55.03,1.1.03,1.65,0,.58-.01,1.16-.04,1.74l-2.47-.1c.02-.55.03-1.09.03-1.64,0-.52-.01-1.03-.03-1.55l2.47-.1ZM86.98,38.31c.21,1.16.37,2.33.48,3.51l-2.46.23c-.1-1.11-.26-2.21-.46-3.3l2.44-.44ZM85.56,32.72c.36,1.1.68,2.22.95,3.35l-2.41.57c-.25-1.06-.55-2.11-.89-3.15l2.35-.77ZM83.36,27.34c.51,1.03.97,2.09,1.39,3.16l-2.3.9c-.4-1.01-.83-2-1.31-2.97l2.22-1.09ZM80.43,22.3c.66.97,1.27,1.96,1.85,2.98l-2.16,1.21c-.54-.96-1.12-1.89-1.74-2.8l2.05-1.39ZM76.85,17.74c.78.86,1.52,1.76,2.23,2.68l-1.97,1.5c-.66-.87-1.36-1.71-2.1-2.52l1.83-1.66ZM72.65,13.71c.9.75,1.76,1.53,2.59,2.35l-1.74,1.76c-.78-.77-1.59-1.51-2.43-2.21l1.59-1.9ZM67.94,10.31c.99.61,1.95,1.27,2.88,1.96l-1.48,1.99c-.88-.65-1.78-1.27-2.71-1.85l1.31-2.1ZM62.8,7.6c1.06.47,2.1.98,3.12,1.54l-1.19,2.17c-.96-.52-1.93-1.01-2.93-1.45l1-2.26ZM57.32,5.61c1.13.32,2.24.69,3.34,1.1l-.88,2.32c-1.03-.39-2.08-.74-3.14-1.04l.68-2.38ZM51.65,4.42c1.15.16,2.3.37,3.44.62l-.55,2.41c-1.07-.24-2.15-.44-3.23-.59l.34-2.45Z"/>
      </g>
      <g class="cls-6">
        <path class="cls-2" d="M44.97,4.03c.31,0,.62-.01.93-.01,1.14,0,2.28.05,3.42.14l-.2,2.47c-1.07-.09-2.14-.13-3.21-.13-.29,0-.59,0-.88.01l-.06-2.47ZM39.2,4.57c1.16-.19,2.32-.33,3.49-.42l.19,2.47c-1.1.09-2.2.22-3.29.39l-.4-2.44ZM33.57,5.89c1.1-.34,2.22-.64,3.35-.89l.53,2.42c-1.06.23-2.11.51-3.15.83l-.73-2.36ZM28.14,7.99c1.05-.49,2.11-.94,3.2-1.35l.86,2.32c-1.02.38-2.03.8-3.01,1.27l-1.05-2.24ZM23.05,10.84c.98-.64,1.99-1.24,3.02-1.8l1.18,2.18c-.97.52-1.92,1.09-2.84,1.69l-1.36-2.07ZM18.44,14.34c.88-.76,1.78-1.49,2.72-2.18l1.47,1.99c-.88.65-1.73,1.33-2.55,2.05l-1.63-1.86ZM14.33,18.47c.76-.88,1.56-1.73,2.39-2.55l1.73,1.77c-.78.77-1.53,1.57-2.25,2.39l-1.87-1.62ZM10.86,23.1c.63-.97,1.3-1.92,2.01-2.84l1.96,1.51c-.67.86-1.3,1.75-1.89,2.67l-2.08-1.34ZM8.04,28.21c.49-1.05,1.02-2.09,1.6-3.1l2.15,1.22c-.54.95-1.04,1.92-1.5,2.91l-2.25-1.04ZM5.97,33.65c.34-1.13.73-2.24,1.17-3.33l2.3.92c-.41,1.03-.78,2.07-1.1,3.13l-2.37-.72ZM4.68,39.28c.18-1.14.41-2.28.68-3.4l2.4.59c-.26,1.06-.47,2.12-.64,3.2l-2.44-.38ZM4.18,45.05c.02-1.15.09-2.29.2-3.44l2.46.25c-.11,1.07-.17,2.15-.19,3.23l-2.47-.04ZM4.47,50.77c-.14-1.15-.23-2.3-.27-3.46l2.47-.09c.04,1.09.13,2.17.26,3.25l-2.46.3ZM5.57,56.47c-.29-1.11-.54-2.23-.74-3.36l2.44-.43c.19,1.06.42,2.12.7,3.16l-2.39.64ZM7.46,61.99c-.45-1.08-.86-2.18-1.23-3.29l2.35-.77c.34,1.05.73,2.08,1.16,3.09l-2.28.96ZM10.08,67.16c-.6-1-1.15-2.03-1.66-3.07l2.22-1.09c.48.98,1,1.95,1.57,2.89l-2.12,1.27ZM13.4,71.93c-.73-.9-1.42-1.83-2.07-2.79l2.05-1.39c.61.9,1.26,1.78,1.94,2.63l-1.93,1.55ZM17.35,76.2c-.85-.8-1.67-1.63-2.45-2.5l1.84-1.66c.73.81,1.5,1.6,2.3,2.35l-1.69,1.8ZM21.85,79.87c-.95-.67-1.87-1.38-2.76-2.12l1.59-1.9c.84.7,1.7,1.37,2.59,2l-1.43,2.02ZM26.84,82.89c-1.04-.54-2.06-1.11-3.05-1.73l1.31-2.1c.93.58,1.89,1.12,2.87,1.63l-1.13,2.2ZM32.17,85.17c-1.1-.38-2.18-.81-3.25-1.29l1.01-2.26c1,.45,2.02.85,3.05,1.21l-.82,2.34ZM37.75,86.69c-1.13-.23-2.24-.5-3.35-.81l.68-2.38c1.04.3,2.09.55,3.15.76l-.48,2.43ZM43.54,87.43c-1.16-.07-2.32-.18-3.48-.34l.35-2.45c1.09.15,2.18.26,3.27.32l-.14,2.47ZM49.23,87.37c-1.1.09-2.21.13-3.32.13h-.09v-2.48h.09c1.04,0,2.08-.04,3.12-.12l.2,2.47ZM54.99,86.5c-1.14.25-2.29.46-3.44.62l-.33-2.45c1.09-.15,2.17-.34,3.24-.58l.54,2.42ZM60.57,84.84c-1.1.41-2.21.78-3.34,1.1l-.67-2.38c1.06-.3,2.11-.64,3.14-1.03l.87,2.32ZM65.83,82.44c-1.02.55-2.06,1.06-3.12,1.53l-1-2.27c1-.44,1.97-.92,2.93-1.44l1.18,2.18ZM70.74,79.31c-.93.69-1.9,1.34-2.89,1.95l-1.3-2.1c.93-.58,1.84-1.19,2.72-1.84l1.47,1.99ZM75.16,75.53c-.83.82-1.7,1.6-2.59,2.34l-1.58-1.9c.84-.7,1.66-1.43,2.44-2.2l1.73,1.77ZM79.02,71.18c-.71.92-1.46,1.82-2.24,2.68l-1.83-1.67c.74-.81,1.44-1.65,2.1-2.52l1.96,1.51ZM82.23,66.33c-.58,1.02-1.19,2.01-1.85,2.98l-2.04-1.4c.62-.91,1.2-1.84,1.74-2.8l2.15,1.22ZM84.72,61.12c-.42,1.07-.89,2.12-1.4,3.15l-2.22-1.1c.48-.97.92-1.96,1.32-2.97l2.3.91ZM86.48,55.54c-.27,1.13-.59,2.25-.96,3.35l-2.35-.78c.34-1.04.64-2.09.9-3.15l2.41.58ZM87.45,49.8c-.11,1.18-.28,2.35-.49,3.51l-2.43-.45c.2-1.09.36-2.19.46-3.3l2.46.24ZM87.61,44.11c.02.55.03,1.1.03,1.65,0,.58-.01,1.16-.04,1.74l-2.47-.1c.02-.55.03-1.09.03-1.64,0-.52-.01-1.03-.03-1.55l2.47-.1ZM86.98,38.31c.21,1.16.37,2.33.48,3.51l-2.46.23c-.1-1.11-.26-2.21-.46-3.3l2.44-.44ZM85.56,32.72c.36,1.1.68,2.22.95,3.35l-2.41.57c-.25-1.06-.55-2.11-.89-3.15l2.35-.77ZM83.36,27.34c.51,1.03.97,2.09,1.39,3.16l-2.3.9c-.4-1.01-.83-2-1.31-2.97l2.22-1.09ZM80.43,22.3c.66.97,1.27,1.96,1.85,2.98l-2.16,1.21c-.54-.96-1.12-1.89-1.74-2.8l2.05-1.39ZM76.85,17.74c.78.86,1.52,1.76,2.23,2.68l-1.97,1.5c-.66-.87-1.36-1.71-2.1-2.52l1.83-1.66ZM72.65,13.71c.9.75,1.76,1.53,2.59,2.35l-1.74,1.76c-.78-.77-1.59-1.51-2.43-2.21l1.59-1.9ZM67.94,10.31c.99.61,1.95,1.27,2.88,1.96l-1.48,1.99c-.88-.65-1.78-1.27-2.71-1.85l1.31-2.1ZM62.8,7.6c1.06.47,2.1.98,3.12,1.54l-1.19,2.17c-.96-.52-1.93-1.01-2.93-1.45l1-2.26ZM57.32,5.61c1.13.32,2.24.69,3.34,1.1l-.88,2.32c-1.03-.39-2.08-.74-3.14-1.04l.68-2.38ZM51.65,4.42c1.15.16,2.3.37,3.44.62l-.55,2.41c-1.07-.24-2.15-.44-3.23-.59l.34-2.45Z"/>
      </g>
    </g>
  </g>
  <path class="cls-5" d="M49.26,14.68h-3.41c-.68-.88-.59-2.33-1.31-3.15l-.88,3.15h-3.5l2.6,2.22-.85,3.2,2.74-1.9,2.77,1.9-.92-3.22,2.76-2.2ZM60.45,18.7l-.96-3.32-1.22,3.32h-3.41l2.77,2.22-.93,3.2,2.8-1.93,2.89,1.93-1.06-3.38,2.81-2.04h-3.67ZM28.8,18.7h-3.5l2.74,2.18-.99,3.24,2.73-1.89,2.86,1.89-.96-3.33,2.71-2.09h-3.5c-.31-.9-.53-1.86-.83-2.76-.08-.23.07-.46-.31-.39l-.96,3.15ZM23.38,29.72h-3.06l-1.22-3.32-1.14,3.32h-3.5l2.6,2.05-.85,3.2,2.71-1.88,2.89,2.05-1.04-3.48,2.61-1.94ZM71.29,29.72l-.88-3.32c-.83.85-.69,2.42-1.48,3.32h-3.06l2.61,2.04-1.03,3.38,2.88-2.05,2.71,1.87-.85-3.21,2.43-2.04h-3.32ZM16.04,44.58l-.96-3.32-1.14,3.32h-3.5l2.78,2.04-1.03,3.38,2.86-2.09,2.73,2.09-.88-3.37,2.63-2.05h-3.5ZM78.81,44.58h-3.23l-1.22-3.32-.96,3.32h-3.67l2.71,2.09-.96,3.33,2.89-1.92,2.7,1.92-.97-3.33,2.72-2.09ZM20.06,59.44l-.96-3.32-1.22,3.32h-3.41l2.6,2.23-.85,3.2,2.74-1.9,2.85,1.9-1.03-3.22,2.78-2.2h-3.5ZM74.79,59.44h-3.23l-1.22-3.32-1.22,3.32h-3.41l2.78,2.22-1.03,3.2,2.89-1.86,2.8,1.87-.93-3.2,2.6-2.22ZM63.95,70.46h-3.23l-1.22-3.32-1.22,3.32h-3.23l2.61,2.04-.85,3.21,2.71-1.87,2.71,1.87-.85-3.2,2.6-2.04ZM28.8,70.46h-3.5l2.71,2.09-.96,3.33,2.72-1.93,2.88,1.93-1.03-3.48,2.78-1.94h-3.5c-.28-.91-.48-1.87-.83-2.76-.08-.22.08-.46-.3-.39l-.96,3.15ZM45.76,74.48l-1.14-3.32-1.22,3.32h-3.23l2.6,2.05-.85,3.2,2.71-1.88,2.89,2.05-1.03-3.38,2.6-2.04h-3.32Z"/>
  <path class="cls-2" d="M51.38,37.42v11.39c0,.24.1,1.08.15,1.39.36,2.41,2.7,3,4.82,2.63,2.45-.42,2.25-2.5,2.36-4.37.18-3.18.23-6.49.12-9.69-.01-.29-.34-1.36.06-1.46l3.59.1c-.12,3.61.16,7.33,0,10.93-.2,4.66-1.27,7.42-6.43,7.73-6.05.36-8.07-2.14-8.33-7.85-.16-3.53.14-7.19,0-10.73.4-.33.84-.07,1.24-.07.81,0,1.62-.01,2.43,0"/>
  <polygon class="cls-2" points="43.55 37.51 43.55 40.58 33.63 40.58 33.63 44.71 42.84 44.71 42.84 47.78 33.63 47.78 33.63 52.86 43.9 52.86 43.9 55.75 43.72 55.93 30.03 55.93 29.85 55.75 29.85 37.51 43.55 37.51"/>
</svg>