<?xml version="1.0" encoding="UTF-8"?>
<svg id="_Слой_1" data-name="Слой 1" xmlns="http://www.w3.org/2000/svg" viewBox="0 0 72 72">
  <defs>
    <style>
      .cls-1 {
        fill: #0056b3;
      }

      .cls-2 {
        fill: #eff6ff;
      }
    </style>
  </defs>
  <path class="cls-2" d="M72,36c0,1.18-.06,2.36-.17,3.53-.12,1.17-.29,2.34-.52,3.49-.23,1.16-.52,2.3-.86,3.43-.34,1.13-.74,2.24-1.19,3.33-.45,1.09-.96,2.15-1.51,3.19-.56,1.04-1.16,2.05-1.82,3.03-.65.98-1.36,1.93-2.11,2.84-.75.91-1.54,1.78-2.37,2.62-.83.83-1.71,1.62-2.62,2.37-.91.75-1.86,1.45-2.84,2.11-.98.65-1.99,1.26-3.03,1.82-1.04.56-2.1,1.06-3.19,1.51-1.09.45-2.2.85-3.33,1.19-1.13.34-2.27.63-3.43.86-1.16.23-2.32.4-3.49.52-1.17.11-2.35.17-3.53.17s-2.36-.06-3.53-.17c-1.17-.12-2.34-.29-3.49-.52-1.16-.23-2.3-.52-3.43-.86-1.13-.34-2.24-.74-3.33-1.19-1.09-.45-2.15-.96-3.19-1.51s-2.05-1.16-3.03-1.82c-.98-.66-1.93-1.36-2.84-2.11-.91-.75-1.78-1.54-2.62-2.37-.83-.83-1.62-1.71-2.37-2.62-.75-.91-1.45-1.86-2.1-2.84-.65-.98-1.26-1.99-1.82-3.03-.56-1.04-1.06-2.1-1.51-3.19-.45-1.09-.85-2.2-1.19-3.33-.34-1.13-.63-2.27-.86-3.43-.23-1.16-.4-2.32-.52-3.49-.11-1.17-.17-2.35-.17-3.53s.06-2.35.17-3.53c.12-1.17.29-2.34.52-3.49.23-1.16.52-2.3.86-3.43.34-1.13.74-2.24,1.19-3.33.45-1.09.96-2.15,1.51-3.19.56-1.04,1.16-2.05,1.82-3.03.65-.98,1.36-1.93,2.1-2.84.75-.91,1.54-1.78,2.37-2.62s1.71-1.62,2.62-2.37c.91-.75,1.86-1.45,2.84-2.11.98-.65,1.99-1.26,3.03-1.82s2.1-1.06,3.19-1.51c1.09-.45,2.2-.85,3.33-1.19,1.13-.34,2.27-.63,3.43-.86,1.16-.23,2.32-.4,3.49-.52,1.17-.12,2.35-.17,3.53-.17s2.35.06,3.53.17c1.17.12,2.34.29,3.49.52,1.16.23,2.3.52,3.43.86,1.13.34,2.24.74,3.33,1.19,1.09.45,2.15.96,3.19,1.51,1.04.56,2.05,1.16,3.03,1.82.98.65,1.93,1.36,2.84,2.11.91.75,1.78,1.54,2.62,2.37s1.62,1.71,2.37,2.62c.75.91,1.45,1.86,2.11,2.84.65.98,1.26,1.99,1.82,3.03.56,1.04,1.06,2.1,1.51,3.19.45,1.09.85,2.2,1.19,3.33.34,1.13.63,2.27.86,3.43.23,1.16.4,2.32.52,3.49.11,1.17.17,2.35.17,3.53"/>
  <path class="cls-1" d="M19.37,31.65c.34-1.19,5.36-3.14,6.76-3.52.79-.21.91-.77,1.62.22,1.46,2.03,1.78,16.6.4,17.93-.97.94-8.79,3.89-8.79,1.44v-16.07Z"/>
  <path class="cls-1" d="M53.71,26.9v17.9l-8.77,4.02v-18.63c2.51-1.65,5.79-3.01,8.77-3.29"/>
  <path class="cls-1" d="M36.67,19.1c11.31-.18,5.88,14.42.57,18.76-6.9-3.32-11.72-18.58-.57-18.76M39.37,25.78c0-1.45-1.18-2.63-2.63-2.63s-2.63,1.18-2.63,2.63,1.18,2.63,2.63,2.63,2.63-1.18,2.63-2.63"/>
  <path class="cls-1" d="M31.06,35.67c2.48,1.15,2.31,4.47,5.48,4.46,3.02-.02,3.55-3.03,5.48-4.46v13.15l-10.96-2.92v-10.23Z"/>
</svg>