<?xml version="1.0" encoding="UTF-8"?>
<svg id="_Слой_1" data-name="Слой 1" xmlns="http://www.w3.org/2000/svg" viewBox="0 0 72 72">
  <defs>
    <style>
      .cls-1 {
        fill: #fef2f2;
      }

      .cls-2 {
        fill: #b72a40;
      }
    </style>
  </defs>
  <path class="cls-1" d="M72,36c0,1.18-.06,2.36-.17,3.53-.12,1.17-.29,2.34-.52,3.49-.23,1.16-.52,2.3-.86,3.43-.34,1.13-.74,2.24-1.19,3.33-.45,1.09-.96,2.15-1.51,3.19-.56,1.04-1.16,2.05-1.82,3.03-.65.98-1.36,1.93-2.11,2.84-.75.91-1.54,1.78-2.37,2.62-.83.83-1.71,1.62-2.62,2.37-.91.75-1.86,1.45-2.84,2.11-.98.65-1.99,1.26-3.03,1.82-1.04.56-2.1,1.06-3.19,1.51-1.09.45-2.2.85-3.33,1.19-1.13.34-2.27.63-3.43.86-1.16.23-2.32.4-3.49.52-1.17.11-2.35.17-3.53.17s-2.36-.06-3.53-.17c-1.17-.12-2.34-.29-3.49-.52-1.16-.23-2.3-.52-3.43-.86-1.13-.34-2.24-.74-3.33-1.19-1.09-.45-2.15-.95-3.19-1.51s-2.05-1.16-3.03-1.82c-.98-.65-1.93-1.36-2.84-2.11-.91-.75-1.78-1.54-2.62-2.37-.83-.83-1.62-1.71-2.37-2.62-.75-.91-1.45-1.86-2.1-2.84-.65-.98-1.26-1.99-1.82-3.03-.56-1.04-1.06-2.1-1.51-3.19-.45-1.09-.85-2.2-1.19-3.33-.34-1.13-.63-2.27-.86-3.43-.23-1.16-.4-2.32-.52-3.49-.11-1.17-.17-2.35-.17-3.53s.06-2.35.17-3.53c.12-1.17.29-2.34.52-3.49.23-1.16.52-2.3.86-3.43.34-1.13.74-2.24,1.19-3.33.45-1.09.96-2.15,1.51-3.19.56-1.04,1.16-2.05,1.82-3.03.65-.98,1.36-1.93,2.1-2.84.75-.91,1.54-1.78,2.37-2.62.83-.83,1.71-1.62,2.62-2.37.91-.75,1.86-1.45,2.84-2.11.98-.65,1.99-1.26,3.03-1.82s2.1-1.06,3.19-1.51c1.09-.45,2.2-.85,3.33-1.19,1.13-.34,2.27-.63,3.43-.86,1.16-.23,2.32-.4,3.49-.52,1.17-.11,2.35-.17,3.53-.17s2.35.06,3.53.17c1.17.12,2.34.29,3.49.52,1.16.23,2.3.52,3.43.86,1.13.34,2.24.74,3.33,1.19,1.09.45,2.15.95,3.19,1.51,1.04.56,2.05,1.16,3.03,1.82.98.65,1.93,1.36,2.84,2.11.91.75,1.78,1.54,2.62,2.37.83.83,1.62,1.71,2.37,2.62.75.91,1.45,1.86,2.11,2.84.65.98,1.26,1.99,1.82,3.03.56,1.04,1.06,2.1,1.51,3.19.45,1.09.85,2.2,1.19,3.33.34,1.13.63,2.27.86,3.43.23,1.16.4,2.32.52,3.49.11,1.17.17,2.35.17,3.53"/>
  <path class="cls-2" d="M36.11,21.68c.71.02,12.64,4.96,13.19,5.41,4.38,3.51-1.49,16.65-4.61,20.27-6.66,7.72-12.35,6.77-18.22-1.23-2.52-3.43-7.78-15.49-4.04-18.76.68-.59,12.93-5.72,13.67-5.69M35.73,49.37c6.03-2.07,11.42-10.9,11.39-17.07-.02-3.49-8.51-5.56-11.39-6.39v23.46Z"/>
</svg>