<?xml version="1.0" encoding="UTF-8"?>
<svg id="_Слой_1" data-name="Слой 1" xmlns="http://www.w3.org/2000/svg" viewBox="0 0 84.12 35.5">
  <defs>
    <style>
      .cls-1 {
        fill: #fff;
      }

      .cls-2 {
        fill: #b72a40;
      }
    </style>
  </defs>
  <path class="cls-1" d="M19.36,27.27s-3.74,0-4.89.45c-1.15.45-1.42.91-2.51,1.64-1.08.72-1.23.17-1.27,0-.04-.17-.62.34-.94-.06-.32-.4-.04-1.04.32-1.36.36-.32.72-.91-.19-.66-.91.26-.85.4-1.15.62-.3.21-1.08.19-.91-.4.17-.59.74-.96.19-.96s-1.23,0-1.04-.77c.19-.76.3-1.06.3-1.06,0,0-1.47.4-1.59-.36-.13-.77-.17-1.06-.17-1.06,0,0-1,.7-1.06-.15-.06-.85.57-1.55,1.04-2.1.47-.55,1.4-1.68,2.51-2.46,1.1-.79,2.59-1.04,2.59-1.04,0,0-1.34-.19-2.23.21-.89.4-1.83,1.04-2.36,1.06-.53.02-1.1-.51-.53-1.15.57-.64,1.36-1,1.28-1.38-.08-.38-.45-.28-.7-.53-.26-.25-.47-.42-.28-.85.19-.42.42-.47.51-.68.09-.21.19-.32-.38-.26-.57.06-1.02.11-1.06-.34-.04-.45.55-.89.87-1.28.32-.38.49-.47-.23-.19s-1.87.32-1.53-.45c.34-.77.79-1.08,1.93-1.76,1.15-.68,3.14-.68,4.21-.72,1.06-.04,2.38-.21,2.38-.21,0,0-.62-.59-2.02-.59s-2.95.45-3.78.51c-.83.06-.72-.74.17-1.51.89-.76,2.61-1.34,4.33-1.32,1.72.02,4.21.32,5.86,1.23,1.66.91,2.7,1.66,4.06,2.25,1.36.59,2.17,1.36,3.36,1.83,1.19.47,1.7.7,1,.83-.7.13-1.93.02-2.76-.09-.83-.11-1.72-.26-1.44-.17.28.08,1.57.49,1.74.93.17.45,0,.81-.66.51-.66-.3-1.19-.72-1.96-.81-.76-.08-1,.13-.47,1.17s1.04,1.78,1.51,1.95c.47.17.23.26,0,.38-.23.13-.32.3.08.55.4.25,1.57.76,1.38.89-.19.13-.45.3-1.02.15-.57-.15-.76,0-.76,0,0,0,.47.26,1.15.59.68.34.64.89-.43.7-1.06-.19-1.89-.32-1.87-.26.02.06.96.28.98.87.02.6-.3.4-.04.89.25.49.62.55.47,1-.15.45-.34.02-.4.76-.06.74.06.98-.13,1.34-.19.36.15.83-.42.89-.57.06-1.19,0-1.91.11-.72.11-.68.21-.49.32.19.11.66.13.38.38s-.26.19-1.06.34c-.81.15-1.06.42-.45.49.62.06,1.32.23,1.87.45.55.21,1.32.67.64.68"/>
  <polygon class="cls-2" points="8.78 10.64 6.41 10.64 6.41 23.56 8.78 23.56 8.78 22.6 7.6 22.6 7.6 11.5 8.78 11.5 8.78 10.64"/>
  <polygon class="cls-2" points="17.94 10.64 20.31 10.64 20.31 23.56 17.94 23.56 17.94 22.6 19.12 22.6 19.12 11.5 17.94 11.5 17.94 10.64"/>
  <rect class="cls-2" x="12.45" y="23.56" width="1.81" height="3.7"/>
  <rect class="cls-2" x="12.45" y="8.62" width="1.81" height="13.34"/>
  <path class="cls-1" d="M41.15,23.56h-2.82l-.48-3.48h-1.26l-.49,3.48h-2.82l2.13-12.97h3.61l2.13,12.97ZM37.61,18.28l-.41-3.87-.39,3.87h.8ZM49.25,23.56h-3.04l-1.57-3.88v3.88h-2.67v-10.5h2.67v3.41c.82-1.87,1.39-2.93,1.71-3.17.33-.24.68-.36,1.07-.36.51,0,.94.05,1.29.14v1.87c-.34,0-.58.08-.72.25-.14.17-.55,1-1.24,2.51l2.5,5.85ZM58.67,25.42h-2.14v-1.85h-6.59v-10.5h2.87v8.83h.85v-8.83h2.88v8.87h2.14v3.48ZM65.66,19.12h-3.45v2.45c0,.36.15.53.44.53s.43-.18.43-.53v-2.12h2.58v2.13c0,1.42-1.01,2.12-3.03,2.12s-3-.74-3-2.22v-6.28c0-1.48,1-2.22,3-2.22s3.03.71,3.03,2.12v4ZM63.08,17.54v-2.41c0-.34-.14-.52-.43-.52s-.44.17-.44.52v2.41h.88ZM73.1,23.56h-2.86v-5h-.76v5h-2.85v-10.5h2.85v3.92h.76v-3.92h2.86v10.5ZM80,14.75h-1.59v8.82h-2.85v-8.82h-1.59v-1.68h6.03v1.68Z"/>
</svg>